<?xml version="1.0" encoding="UTF-8"?>
<svg id="Layer_4" data-name="Layer 4" xmlns="http://www.w3.org/2000/svg" viewBox="0 0 200.51 125.59">
  <defs>
    <style>
      .cls-1 {
        fill: #ec4e20;
      }

      .cls-2 {
        fill: #252525;
      }

      .cls-3 {
        fill: #4964d1;
      }

      .cls-4 {
        fill: #eee;
      }
    </style>
  </defs>
  <g>
    <path class="cls-2" d="M10.19,8.1c10.8.49,21.16.89,31.23,1.21,16.43,27.83,26.47,39.98,29.31,50.19-3.5,2.68-7.79,5.74-12.91,9.44-1.43-8.24-6.26-15.36-13.64-25.61-3.19-.33-6.59-.68-10.21-1.04.95,4.55,1.5,8.81,1.66,13.03-8.21.27-17.64.61-28.53,1.03,2.74-16.01,4.78-30.58,3.09-48.24M10.19,3.1c-1.37,0-2.68.56-3.62,1.55-1,1.05-1.49,2.48-1.35,3.92,1.65,17.29-.4,31.48-3.04,46.92-.25,1.49.18,3.01,1.17,4.14.95,1.08,2.32,1.7,3.76,1.7.06,0,.13,0,.19,0,9.83-.38,19.16-.71,28.51-1.03,1.33-.04,2.59-.62,3.49-1.59.91-.97,1.39-2.27,1.34-3.6-.09-2.36-.29-4.75-.62-7.2.48.05.95.1,1.42.15,6.36,8.9,10.31,15.05,11.46,21.72.29,1.7,1.44,3.13,3.04,3.78.61.25,1.25.37,1.88.37,1.04,0,2.07-.32,2.93-.95,1.09-.79,2.14-1.55,3.15-2.28,3.79-2.73,7.06-5.09,9.86-7.24,1.62-1.24,2.32-3.34,1.78-5.31-1.96-7.06-6.76-14.56-14.02-25.9-4.28-6.69-9.61-15.02-15.8-25.49-.87-1.47-2.43-2.4-4.15-2.46-9.97-.32-20.17-.71-31.17-1.21-.08,0-.15,0-.22,0h0Z"/>
    <path class="cls-2" d="M52.1,9.46c7.7.79,15.23,1.61,22.53,2.39,2.44,5.29,4.6,9.96,6.51,14.07-.2,8.81-.25,14.76-.78,19.45,1.67-2.86,3.14-6.22,4.85-10.57,3.55.44,6.92.8,10.22,1.08.48,9.07.77,14.2.87,18.46-5.53-.04-11.36-.25-19.74-.61-3.6-8.37-11.54-20.12-24.46-44.26M52.1,4.46c-1.66,0-3.22.82-4.15,2.21-1.03,1.54-1.13,3.51-.26,5.14,6.22,11.63,11.25,20.31,15.28,27.28,4.2,7.26,7.23,12.5,9,16.6.76,1.76,2.46,2.94,4.38,3.02,7.98.35,14.09.57,19.92.62.01,0,.03,0,.04,0,1.34,0,2.62-.54,3.57-1.49.95-.97,1.47-2.28,1.43-3.63-.09-3.73-.32-7.98-.69-15.01l-.19-3.59c-.13-2.5-2.09-4.51-4.58-4.72-3.08-.26-6.28-.59-9.79-1.03,0-.08,0-.15,0-.23l.08-3.6c.02-.77-.14-1.53-.47-2.22-2.18-4.68-4.3-9.27-6.5-14.05-.74-1.6-2.26-2.69-4.01-2.88l-3.9-.42c-6.05-.65-12.3-1.32-18.65-1.97-.17-.02-.34-.03-.51-.03h0Z"/>
    <path class="cls-2" d="M135.15,8.09c-2.22,6.55-4.21,12.13-5.95,16.96-5.17,2.23-9.92,4.34-14.22,6.27,2.43.31,4.89.57,7.41.78-1.02,3.1-1.92,5.82-2.7,8.24-2.27.94-4.39,1.82-6.37,2.65,1.52.04,3.08.05,4.71.05,1.5,0,3.05-.01,4.67-.04-2.35,5.23-3.89,9.08-4.71,12.62-7.18-.41-12.38-.78-17.43-1.28.6-7.08,1.77-16.63,4.39-42.58,9.66-1.16,19.75-2.44,30.2-3.66M135.15,3.09c-.19,0-.39.01-.58.03-6.49.75-12.86,1.54-19.02,2.29-3.79.47-7.53.93-11.2,1.37-2.32.28-4.14,2.13-4.38,4.46-1.28,12.62-2.22,21.41-2.9,27.83-.74,6.96-1.19,11.15-1.5,14.84-.23,2.72,1.77,5.13,4.49,5.4,4.78.47,9.89.85,17.64,1.29.1,0,.19,0,.29,0,2.31,0,4.34-1.59,4.87-3.87.75-3.25,2.3-7.03,4.4-11.71.7-1.56.55-3.37-.39-4.8-.38-.58-.87-1.06-1.43-1.42.28-.85.57-1.73.87-2.66l.82-2.5c.25-.77.31-1.57.19-2.35,1.25-.55,2.53-1.1,3.85-1.67,1.27-.55,2.25-1.59,2.72-2.89,2.17-6,4.08-11.42,5.99-17.05.55-1.62.23-3.42-.85-4.75-.96-1.18-2.39-1.86-3.89-1.86h0Z"/>
    <path class="cls-2" d="M188.05,6.97c-1.13,5.55-2.26,10.95-3.33,16.18-3.11,1.05-6.2,2.1-9.24,3.13,2.31,1.29,4.89,2.51,7.79,3.71.53,7.45,1.84,14.61,3.48,22-12.47.68-22.99,1.27-31.93,1.77-1.07-4.7-1.43-9.37-.99-14.64-3.75,5.44-6.94,10.12-9.4,14.37-8.9.82-15.96,1.47-21.79,2.01,1.69-4.9,4.83-10.46,9.54-18.75,2.66-1.4,5.48-2.89,8.44-4.43-2.15-.34-4.19-.73-6.15-1.16,2.55-6.15,5.7-13.67,9.47-23.19,6.97-.11,14.01-.25,21.15-.41-.52,3.13-.9,5.99-1.13,8.63,1.99-2.81,4.02-5.73,6.06-8.74,5.93-.14,11.94-.3,18.04-.48M188.05,1.97s-.1,0-.14,0c-6.09.18-12.15.34-18.01.48-.87.02-1.72.27-2.45.71-.72-.39-1.53-.59-2.36-.59-.04,0-.07,0-.11,0-7.12.16-14.22.3-21.12.41-2.02.03-3.83,1.28-4.57,3.16-3.11,7.88-5.76,14.25-8.09,19.88l-1.34,3.24c-.42,1.02-.49,2.15-.21,3.2-.75.44-1.37,1.07-1.8,1.83-4.98,8.74-8.12,14.37-9.93,19.59-.55,1.61-.26,3.38.79,4.72.95,1.22,2.41,1.92,3.93,1.92.15,0,.31,0,.46-.02l8.01-.74,13.78-1.27c1.62-.15,3.06-1.07,3.87-2.48.33-.58.68-1.17,1.05-1.77.05.21.09.42.14.63.52,2.29,2.55,3.9,4.87,3.9.09,0,.19,0,.28,0,8.95-.5,19.46-1.09,31.93-1.77,1.47-.08,2.82-.8,3.71-1.97.89-1.17,1.22-2.67.9-4.11-1.89-8.5-2.93-15.06-3.37-21.27-.06-.84-.33-1.64-.77-2.32,1.08-.72,1.86-1.85,2.12-3.16.46-2.27.94-4.57,1.42-6.9.63-3.04,1.27-6.14,1.91-9.28.3-1.5-.09-3.05-1.07-4.22-.95-1.13-2.35-1.78-3.83-1.78h0Z"/>
    <path class="cls-2" d="M31.73,23.65c3.05,3.78,6.07,7.36,8.93,10.68-2.43-.32-4.96-.66-7.6-1.01-.22-3.02-.66-6.2-1.33-9.67M31.73,18.65c-.71,0-1.43.15-2.11.47-2.08.97-3.24,3.23-2.8,5.48.63,3.28,1.04,6.26,1.25,9.09.17,2.36,1.98,4.28,4.33,4.59l6.43.86,1.17.16c.22.03.44.04.66.04,1.82,0,3.51-.99,4.4-2.62.99-1.82.75-4.07-.61-5.64-3.21-3.73-6.1-7.19-8.83-10.56-.97-1.2-2.42-1.86-3.89-1.86h0Z"/>
    <path class="cls-2" d="M46.72,60.97c2.42,4.63,3.91,9.04,4.38,14.15-5.63,4.7-12,10.19-18.46,16.14,8.38-4.77,16.52-9.33,23.66-13.29,1.17,1.11,2.24,2.28,3.22,3.54-.27,5.6-1.28,12.45-2.74,21.76-15.13,1.88-31.5,3.81-47.62,5.21,2.11-16.41,2.42-30.69,1.78-45.21,14.32-.92,26.05-1.68,35.78-2.3M46.72,55.97c-.11,0-.21,0-.32.01-9.73.62-21.46,1.38-35.78,2.3-2.72.18-4.79,2.49-4.67,5.21.7,15.88.16,29.56-1.75,44.35-.19,1.5.3,3.01,1.35,4.1.95.99,2.25,1.54,3.61,1.54.14,0,.29,0,.43-.02,16.59-1.45,33.47-3.46,47.8-5.23,2.21-.27,3.98-1.98,4.32-4.19,1.4-8.98,2.5-16.32,2.79-22.29.06-1.2-.31-2.37-1.05-3.32-1.14-1.46-2.36-2.8-3.72-4.1-.95-.9-2.19-1.37-3.44-1.37-.14,0-.27,0-.41.02-.65-4.82-2.18-9.42-4.74-14.33-.87-1.66-2.58-2.69-4.43-2.69h0Z"/>
    <path class="cls-2" d="M98.53,60.27c.6,0,1.21,0,1.81,0-1.4,7.31-2.57,16.59-7.13,44.98-10.86.11-21.79.33-32.98.65,3.54-16.74,5.93-26.41,6.39-33.87,4.82-4.65,8.61-8.26,11.54-11.37,2.39,3.97,3.62,7.94,4.66,14.04,2.82-6.43,4.64-10.64,5.81-14.32,3.6-.08,6.75-.11,9.91-.11M98.53,55.27c-3.11,0-6.29.04-10.01.12-2.14.05-4.01,1.44-4.66,3.48-.11.36-.24.73-.37,1.1-.33-.63-.68-1.26-1.06-1.88-.81-1.34-2.19-2.23-3.75-2.4-.18-.02-.36-.03-.54-.03-1.37,0-2.69.56-3.64,1.57-2.45,2.6-5.55,5.58-9.47,9.36l-1.9,1.84c-.9.87-1.44,2.04-1.52,3.29-.34,5.54-1.89,12.72-4.24,23.59-.63,2.91-1.31,6.08-2.05,9.56-.32,1.5.07,3.06,1.05,4.24.95,1.14,2.36,1.8,3.84,1.8.05,0,.09,0,.14,0,11.57-.33,22.33-.54,32.89-.65,2.44-.02,4.5-1.8,4.89-4.21,2.14-13.3,3.53-22.43,4.55-29.09,1.14-7.45,1.83-11.95,2.55-15.75.28-1.46-.11-2.97-1.05-4.12-.94-1.15-2.35-1.82-3.84-1.82-.61,0-1.22,0-1.84,0h0Z"/>
    <path class="cls-2" d="M105.07,60.33c5.91.44,12.8,1.03,23.05,1.93,2.73,5.11,6.95,11.18,12.61,19.61-1.71-.03-3.36-.04-4.95-.04-.85,0-1.68,0-2.49.01-1.81-1.62-3.54-3.16-5.17-4.61,3.02,7.26,7.24,16.82,12.68,30.49-7.29-.2-14.5-.37-21.66-.53-1.73-13.5-3.26-22.74-4.32-29.61-.79,2.39-1.6,5.11-2.52,8.26-2.97-.15-5.86-.26-8.73-.32.6-13.61.67-19.83,1.51-25.19M105.06,55.33c-2.44,0-4.55,1.77-4.93,4.22-.71,4.47-.9,9.2-1.24,17.79-.09,2.34-.2,4.98-.33,7.96-.06,1.35.43,2.66,1.35,3.64.92.98,2.2,1.55,3.55,1.58,2.75.05,5.48.15,8.35.3.72,4.79,1.52,10.36,2.37,17.01.32,2.45,2.38,4.31,4.85,4.36,6.69.14,13.76.31,21.63.53.04,0,.09,0,.13,0,1.63,0,3.16-.8,4.1-2.14.96-1.38,1.17-3.15.55-4.71-2.97-7.47-5.59-13.73-7.83-19.03.99,0,2.01.02,3.05.03.03,0,.05,0,.08,0,1.83,0,3.52-1,4.39-2.62.89-1.64.79-3.63-.25-5.18-.8-1.19-1.58-2.34-2.32-3.44-4.36-6.46-7.81-11.57-10.03-15.73-.8-1.49-2.29-2.48-3.98-2.63-10.44-.91-17.2-1.49-23.11-1.93-.13,0-.25-.01-.37-.01h0Z"/>
    <path class="cls-2" d="M182.03,59.77c.03,3.74.16,7.49.37,11.27-8.73,6.76-14.72,12.58-17.62,20.33,3.93-3.95,9.33-7.13,16.58-10.36,3.5,5.87,6.91,12.08,9.56,18.14-2.86,2.04-5.16,4.25-6.95,6.78-12.74-1.18-24.92-2.38-36.42-3.48-2.81-5.68-5.32-10.63-7.55-14.99,4.18-1.21,8.73-2.15,14.04-2.92,2.24-4.48,5.59-8.23,10.2-12.07-6.01,2.34-10.82,4.55-14.71,7.04-1.58-.15-3.11-.3-4.6-.44-4.89-7.86-8.45-13.75-10.55-19.06,11.38-.04,26.49-.09,47.64-.24M182.03,54.77s-.02,0-.04,0c-20.49.15-35.33.2-47.62.24-1.65,0-3.2.83-4.12,2.2-.93,1.37-1.12,3.11-.51,4.65,2.28,5.75,5.98,11.86,10.95,19.86.07.11.14.22.22.32-.77.2-1.54.41-2.29.63-1.43.41-2.61,1.45-3.2,2.82-.59,1.37-.54,2.93.14,4.26,2.27,4.45,4.76,9.34,7.52,14.93.77,1.55,2.28,2.6,4.01,2.76,3.34.32,6.74.65,10.19.98,8.45.82,17.19,1.66,26.24,2.5.15.01.31.02.46.02,1.61,0,3.14-.78,4.08-2.12,1.42-2.01,3.3-3.84,5.76-5.59,1.93-1.37,2.63-3.91,1.68-6.08-2.42-5.52-5.64-11.64-9.85-18.69-.52-.87-1.27-1.53-2.12-1.94.63-.5,1.27-1.01,1.93-1.52,1.3-1.01,2.02-2.59,1.93-4.24-.21-3.7-.33-7.41-.36-11.03-.02-2.75-2.26-4.96-5-4.96h0Z"/>
  </g>
  <g>
    <g>
      <path class="cls-1" d="M10.19,8.1c1.69,17.65-.35,32.23-3.09,48.24,10.9-.42,20.32-.75,28.53-1.03-.16-4.22-.71-8.48-1.66-13.03,3.62.36,7.01.71,10.21,1.04,7.38,10.25,12.21,17.37,13.64,25.61,5.11-3.7,9.41-6.76,12.91-9.44-2.84-10.21-12.87-22.36-29.31-50.19-10.07-.32-20.43-.73-31.23-1.21Z"/>
      <path class="cls-4" d="M57.82,70.44c-.19,0-.38-.04-.57-.11-.48-.2-.82-.62-.91-1.13-1.33-7.72-5.8-14.44-12.98-24.45-2.39-.25-4.9-.5-7.52-.77.73,3.94,1.16,7.64,1.29,11.28.01.4-.13.79-.4,1.08s-.65.46-1.05.48c-9.33.31-18.66.65-28.53,1.03-.44.02-.89-.17-1.19-.51-.3-.34-.43-.8-.35-1.24,2.68-15.69,4.77-30.13,3.07-47.84-.04-.43.11-.86.41-1.18.3-.32.73-.48,1.15-.46,10.99.49,21.2.89,31.21,1.21.51.02.98.29,1.24.74,6.22,10.53,11.57,18.89,15.86,25.6,7.09,11.08,11.77,18.4,13.6,24.95.16.59-.05,1.22-.53,1.59-2.76,2.12-6.01,4.46-9.76,7.17l-3.18,2.29c-.26.19-.57.29-.88.29ZM33.98,40.79s.1,0,.15,0c3.62.36,7.01.71,10.21,1.04.43.04.81.27,1.06.62,6.96,9.68,11.53,16.41,13.41,23.92l1.31-.95c3.37-2.43,6.32-4.56,8.87-6.49-1.9-5.91-6.36-12.89-12.94-23.17-4.21-6.58-9.43-14.74-15.5-24.98-9.24-.3-18.66-.66-28.71-1.11,1.38,16.62-.46,30.38-2.95,45.09,8.66-.33,16.93-.63,25.17-.91-.22-3.6-.73-7.31-1.55-11.27-.1-.47.03-.95.35-1.31.29-.32.69-.5,1.11-.5Z"/>
    </g>
    <g>
      <path class="cls-1" d="M52.1,9.46c12.92,24.14,20.86,35.89,24.46,44.26,8.39.36,14.22.57,19.74.61-.11-4.26-.4-9.4-.87-18.46-3.3-.27-6.67-.63-10.22-1.08-1.71,4.35-3.18,7.71-4.85,10.57.53-4.69.58-10.64.78-19.45-1.91-4.11-4.07-8.77-6.51-14.07-7.3-.78-14.82-1.6-22.53-2.39Z"/>
      <path class="cls-4" d="M96.3,55.83h-.01c-5.78-.04-11.86-.27-19.8-.61-.58-.03-1.08-.38-1.31-.91-1.84-4.28-4.92-9.6-9.18-16.96-4.02-6.95-9.03-15.61-15.23-27.19-.26-.49-.23-1.08.08-1.54.31-.46.84-.71,1.4-.66,6.34.65,12.57,1.32,18.65,1.97l3.89.42c.52.06.98.38,1.2.86,2.43,5.29,4.59,9.95,6.51,14.06.1.21.15.44.14.67l-.08,3.62c-.07,3.12-.12,5.85-.21,8.28.46-1.08.94-2.28,1.47-3.61.25-.64.9-1.03,1.58-.94,3.65.46,6.97.81,10.16,1.07.75.06,1.33.67,1.37,1.42l.19,3.57c.37,7.01.59,11.25.69,14.93,0,.41-.15.8-.43,1.09-.28.29-.67.45-1.07.45ZM77.56,52.26c6.75.29,12.15.49,17.2.55-.11-3.31-.32-7.28-.64-13.29l-.12-2.27c-2.49-.22-5.07-.5-7.82-.83-1.75,4.37-3.08,7.23-4.53,9.7-.36.61-1.09.89-1.77.67-.67-.22-1.1-.89-1.02-1.59.44-3.95.55-8.87.69-15.68l.07-3.28c-1.78-3.83-3.78-8.14-6.01-12.98l-3.04-.33c-5.17-.56-10.45-1.12-15.82-1.68,5.56,10.3,10.12,18.18,13.84,24.61,4.04,6.97,7.02,12.14,8.96,16.41Z"/>
    </g>
    <g>
      <path class="cls-1" d="M104.95,11.75c-2.63,25.95-3.8,35.51-4.39,42.58,5.06.5,10.25.86,17.43,1.28.82-3.54,2.36-7.39,4.71-12.62-3.38.06-6.47.06-9.38,0,1.99-.82,4.1-1.71,6.37-2.65.78-2.42,1.68-5.14,2.7-8.24-2.53-.21-4.98-.47-7.41-.78,4.3-1.93,9.05-4.04,14.22-6.27,1.75-4.83,3.73-10.41,5.95-16.96-10.45,1.22-20.54,2.5-30.2,3.66Z"/>
      <path class="cls-4" d="M117.99,57.11s-.06,0-.09,0c-7.7-.44-12.77-.81-17.49-1.28-.82-.08-1.42-.8-1.35-1.62.31-3.65.76-7.84,1.5-14.78.69-6.42,1.62-15.21,2.9-27.83.07-.7.62-1.25,1.31-1.34,3.7-.44,7.47-.91,11.29-1.38,6.16-.76,12.47-1.53,18.91-2.28.51-.06,1.02.15,1.34.55.32.4.42.94.25,1.42-1.91,5.63-3.81,11.03-5.97,16.98-.14.39-.44.7-.82.87-3.27,1.41-6.34,2.76-9.16,4.01.62.06,1.25.11,1.88.17.46.04.87.28,1.13.67s.32.86.17,1.3l-.91,2.76c-.65,1.98-1.25,3.8-1.79,5.47-.09.29-.27.54-.51.72.67,0,1.36-.02,2.07-.03.52.02,1,.25,1.28.67.28.43.33.97.12,1.44-2.18,4.87-3.8,8.83-4.62,12.35-.16.68-.77,1.16-1.46,1.16ZM102.18,52.98c4.02.37,8.46.69,14.66,1.06.78-2.87,1.99-5.96,3.54-9.52-2.54.02-4.88.01-7.1-.04-.71-.02-1.31-.53-1.44-1.22-.13-.7.25-1.39.9-1.66l5.73-2.38c.49-1.49,1.01-3.1,1.58-4.83l.32-.96c-1.86-.18-3.71-.38-5.59-.62-.67-.09-1.2-.6-1.29-1.27-.1-.67.26-1.31.87-1.59,3.88-1.74,8.51-3.8,13.64-6.02,1.77-4.91,3.37-9.45,4.96-14.07-5.62.66-11.14,1.34-16.53,2-3.42.42-6.79.83-10.11,1.23-1.22,11.99-2.12,20.43-2.78,26.65-.64,6-1.06,9.94-1.36,13.24Z"/>
    </g>
    <g>
      <path class="cls-1" d="M143.93,7.96c-3.77,9.52-6.92,17.04-9.47,23.19,1.96.43,4,.81,6.15,1.16-2.96,1.55-5.78,3.03-8.44,4.43-4.72,8.29-7.85,13.85-9.54,18.75,5.83-.54,12.89-1.19,21.79-2.01,2.46-4.25,5.65-8.93,9.4-14.37-.44,5.27-.07,9.94.99,14.64,8.95-.5,19.46-1.09,31.93-1.77-1.64-7.38-2.94-14.54-3.48-22-2.9-1.2-5.48-2.42-7.79-3.71,3.04-1.04,6.13-2.08,9.24-3.13,1.07-5.23,2.2-10.63,3.33-16.18-6.1.18-12.1.34-18.04.48-2.03,3.01-4.06,5.93-6.06,8.74.23-2.64.61-5.5,1.13-8.63-7.14.16-14.18.3-21.15.41Z"/>
      <path class="cls-4" d="M122.63,56.99c-.46,0-.89-.21-1.18-.57-.31-.4-.4-.93-.24-1.42,1.7-4.93,4.78-10.43,9.66-19,.14-.25.35-.45.6-.58,1.47-.78,3-1.58,4.56-2.4-.64-.13-1.27-.26-1.9-.4-.43-.09-.8-.38-1.01-.77-.21-.39-.23-.86-.06-1.27l1.37-3.3c2.33-5.62,4.98-11.99,8.09-19.87.22-.56.76-.94,1.37-.95,6.85-.11,13.96-.25,21.14-.41.47,0,.88.18,1.17.52.29.34.42.79.35,1.23-.15.91-.29,1.78-.42,2.64.89-1.29,1.77-2.57,2.62-3.84.27-.4.72-.65,1.21-.66,5.93-.14,11.93-.3,18.03-.48.46-.03.9.18,1.19.53.29.35.41.82.32,1.26-.63,3.11-1.26,6.17-1.89,9.19-.49,2.36-.97,4.69-1.44,6.99-.11.52-.48.95-.99,1.12-1.98.67-3.95,1.33-5.91,2,1.4.68,2.91,1.35,4.56,2.03.53.22.88.71.92,1.28.46,6.39,1.52,13.11,3.44,21.78.1.43,0,.88-.27,1.23s-.67.57-1.11.59c-12.47.68-22.98,1.27-31.93,1.77-.73.03-1.38-.45-1.55-1.17-.75-3.32-1.15-6.54-1.21-9.87-2.53,3.71-4.67,6.99-6.43,10.03-.24.42-.68.7-1.16.74l-21.79,2.01s-.09,0-.14,0ZM133.26,37.87c-3.94,6.93-6.66,11.79-8.37,15.91l18.62-1.71c2.39-4.06,5.41-8.49,9.07-13.8.39-.56,1.1-.79,1.74-.56.64.23,1.05.86.99,1.54-.38,4.52-.16,8.67.7,12.94,8.24-.46,17.77-.99,28.89-1.6-1.64-7.59-2.59-13.73-3.06-19.56-2.69-1.14-5.01-2.26-7.09-3.43-.52-.29-.81-.86-.76-1.45.05-.59.45-1.09,1.01-1.28,2.77-.95,5.59-1.9,8.42-2.86.42-2.03.84-4.08,1.27-6.15.5-2.41,1-4.86,1.51-7.33-5.19.15-10.31.28-15.38.4-1.81,2.67-3.71,5.4-5.64,8.13-.39.55-1.1.78-1.74.54-.64-.23-1.04-.86-.98-1.54.19-2.16.47-4.45.86-6.96-6.22.14-12.38.25-18.36.35-2.96,7.47-5.5,13.57-7.74,18.98l-.67,1.63c1.38.28,2.81.53,4.31.77.64.1,1.14.6,1.24,1.24s-.21,1.27-.79,1.57c-2.81,1.47-5.5,2.88-8.05,4.22Z"/>
    </g>
    <g>
      <path class="cls-1" d="M31.73,23.65c.67,3.47,1.11,6.65,1.33,9.67,2.64.35,5.17.69,7.6,1.01-2.86-3.33-5.88-6.91-8.93-10.68Z"/>
      <path class="cls-4" d="M40.66,35.84c-.07,0-.13,0-.2-.01l-7.6-1.01c-.7-.09-1.25-.67-1.3-1.38-.22-2.97-.64-6.08-1.3-9.5-.13-.68.22-1.35.84-1.64.63-.29,1.37-.12,1.8.42,2.75,3.4,5.66,6.89,8.9,10.65.41.47.48,1.15.18,1.69-.26.49-.77.79-1.32.79ZM34.46,32l2.52.34c-.98-1.16-1.93-2.29-2.86-3.41.14,1.04.25,2.07.34,3.07Z"/>
    </g>
    <g>
      <path class="cls-1" d="M10.94,63.27c14.32-.92,26.05-1.68,35.78-2.3,2.42,4.63,3.91,9.04,4.38,14.15-5.63,4.7-12,10.19-18.46,16.14,8.38-4.77,16.52-9.33,23.66-13.29,1.17,1.11,2.24,2.28,3.22,3.54-.27,5.6-1.28,12.45-2.74,21.76-15.13,1.88-31.5,3.81-47.62,5.21,2.11-16.41,2.42-30.69,1.78-45.21Z"/>
      <path class="cls-4" d="M9.16,109.98c-.41,0-.8-.17-1.08-.46-.31-.33-.46-.78-.41-1.23,1.93-15,2.48-28.86,1.77-44.95-.04-.82.59-1.51,1.4-1.56,14.32-.92,26.05-1.68,35.78-2.3.6-.04,1.15.28,1.43.8,2.67,5.12,4.08,9.66,4.55,14.7.05.49-.15.97-.53,1.29-2.79,2.33-5.46,4.6-8.03,6.83,3.85-2.16,7.73-4.33,11.53-6.44.57-.32,1.28-.23,1.76.22,1.23,1.17,2.33,2.38,3.37,3.71.22.28.33.64.32,1-.28,5.81-1.37,13.05-2.76,21.92-.1.66-.63,1.17-1.3,1.26-14.28,1.77-31.11,3.78-47.67,5.22-.04,0-.09,0-.13,0ZM12.5,64.67c.59,14.99.09,28.13-1.62,42.15,15.48-1.39,31.12-3.24,44.59-4.91,1.25-7.99,2.22-14.6,2.52-19.92-.61-.76-1.25-1.48-1.94-2.17-7.56,4.2-15.37,8.59-22.66,12.74-.66.38-1.5.2-1.95-.42-.45-.62-.37-1.47.19-1.99,5.49-5.06,11.36-10.19,17.9-15.68-.47-4.05-1.63-7.8-3.7-11.95-9.2.59-20.15,1.29-33.34,2.15Z"/>
    </g>
    <g>
      <path class="cls-1" d="M66.62,72.03c-.46,7.46-2.85,17.14-6.39,33.87,11.2-.32,22.12-.54,32.98-.65,4.56-28.39,5.74-37.67,7.13-44.98-3.78-.02-7.43.02-11.72.11-1.17,3.68-3,7.89-5.81,14.32-1.04-6.1-2.27-10.07-4.66-14.04-2.93,3.1-6.72,6.72-11.54,11.37Z"/>
      <path class="cls-4" d="M60.23,107.41c-.44,0-.87-.2-1.15-.54-.29-.35-.41-.82-.32-1.27.73-3.47,1.42-6.64,2.05-9.55,2.38-11.02,3.95-18.31,4.31-24.11.02-.37.19-.73.46-.99l1.92-1.85c3.95-3.81,7.07-6.81,9.57-9.46.32-.34.79-.51,1.25-.46.47.05.88.32,1.12.72,1.75,2.91,2.94,5.88,3.9,9.85,1.76-4.08,2.99-7.1,3.86-9.81.19-.61.76-1.03,1.4-1.04,4.39-.09,8.02-.13,11.76-.11.45,0,.87.2,1.15.55.28.34.4.8.32,1.23-.74,3.86-1.43,8.38-2.57,15.86-1.02,6.66-2.42,15.78-4.55,29.08-.12.72-.74,1.25-1.47,1.26-10.57.11-21.35.32-32.96.65-.01,0-.03,0-.04,0ZM68.08,72.71c-.44,5.92-2,13.17-4.33,23.97-.51,2.38-1.06,4.93-1.65,7.67,10.44-.29,20.24-.48,29.84-.58,2.02-12.61,3.36-21.36,4.35-27.81.98-6.41,1.63-10.65,2.26-14.19-2.8,0-5.62.03-8.83.09-1.19,3.49-2.93,7.5-5.53,13.44-.27.61-.9.96-1.56.89-.66-.08-1.18-.58-1.3-1.24-.89-5.23-1.89-8.66-3.5-11.79-2.28,2.33-4.98,4.94-8.26,8.09l-1.5,1.45Z"/>
    </g>
    <g>
      <path class="cls-1" d="M105.07,60.33c-.85,5.36-.92,11.58-1.51,25.19,2.87.06,5.77.16,8.73.32.92-3.15,1.73-5.87,2.52-8.26,1.06,6.87,2.58,16.11,4.32,29.61,7.16.15,14.37.33,21.66.53-5.44-13.67-9.66-23.23-12.68-30.49,1.63,1.45,3.36,2.99,5.17,4.61,2.36-.02,4.83-.01,7.45.03-5.67-8.43-9.89-14.5-12.61-19.61-10.25-.89-17.14-1.49-23.05-1.93Z"/>
      <path class="cls-4" d="M140.79,109.21s-.03,0-.04,0c-7.29-.19-14.5-.37-21.65-.52-.74-.02-1.36-.57-1.46-1.31-1.25-9.71-2.37-17.11-3.31-23.17-.19.66-.39,1.34-.6,2.05-.19.67-.83,1.1-1.52,1.08-2.99-.16-5.83-.26-8.68-.31-.4,0-.79-.18-1.06-.47s-.42-.69-.41-1.09c.13-2.98.24-5.61.33-7.95.34-8.47.53-13.13,1.2-17.41.12-.77.82-1.33,1.59-1.26,5.86.43,12.62,1.02,23.07,1.93.51.04.95.34,1.19.79,2.31,4.32,5.8,9.5,10.22,16.04l2.31,3.43c.31.46.34,1.06.07,1.55-.26.48-.77.78-1.32.78h-.02c-2.59-.04-5.08-.05-7.41-.03-.36-.02-.74-.13-1.02-.38-.07-.06-.14-.12-.21-.18.13.31.27.63.4.95,2.61,6.14,5.86,13.79,9.7,23.44.19.47.12,1-.16,1.41-.28.4-.74.64-1.23.64ZM120.45,105.71c5.99.13,12.02.28,18.1.44-3.46-8.63-6.42-15.59-8.83-21.26-1.1-2.6-2.1-4.94-2.99-7.09-.27-.65-.06-1.39.51-1.8.57-.41,1.34-.37,1.87.1,1.51,1.34,3.09,2.75,4.75,4.23,1.3,0,2.65,0,4.04,0l-.71-1.06c-4.23-6.27-7.62-11.29-9.99-15.59-9.18-.8-15.46-1.34-20.83-1.75-.49,3.79-.67,8.25-.97,15.69-.08,1.94-.16,4.07-.26,6.43,2,.05,4,.12,6.06.22.81-2.75,1.51-5.07,2.21-7.17.22-.66.86-1.07,1.55-1.02.69.06,1.25.58,1.36,1.27l.57,3.64c.99,6.32,2.21,14.11,3.59,24.73Z"/>
    </g>
    <g>
      <path class="cls-1" d="M134.39,60.01c2.1,5.31,5.66,11.2,10.55,19.06,1.49.14,3.02.29,4.6.44,3.89-2.49,8.7-4.71,14.71-7.04-4.6,3.84-7.96,7.59-10.2,12.07-5.31.77-9.86,1.72-14.04,2.92,2.23,4.36,4.74,9.31,7.55,14.99,11.5,1.1,23.68,2.3,36.42,3.48,1.79-2.53,4.09-4.74,6.95-6.78-2.65-6.06-6.06-12.27-9.56-18.14-7.25,3.23-12.65,6.4-16.58,10.36,2.9-7.76,8.9-13.57,17.62-20.33-.22-3.79-.34-7.54-.37-11.27-21.16.15-36.26.21-47.64.24Z"/>
      <path class="cls-4" d="M183.98,107.44s-.09,0-.14,0c-9.05-.84-17.82-1.68-26.27-2.5l-10.16-.98c-.52-.05-.97-.36-1.2-.83-2.77-5.61-5.26-10.51-7.54-14.97-.2-.4-.22-.87-.04-1.28.18-.41.53-.72.96-.84,4.04-1.16,8.45-2.1,13.47-2.85,1.14-2.14,2.55-4.17,4.31-6.19-2.76,1.28-5.04,2.51-7.04,3.79-.28.18-.62.26-.95.23-1.58-.15-3.11-.3-4.59-.44-.47-.04-.88-.3-1.13-.7-4.88-7.84-8.5-13.82-10.67-19.3-.18-.46-.13-.98.15-1.39.28-.41.74-.66,1.24-.66,9.56-.03,25.56-.08,47.64-.24h.01c.82,0,1.49.66,1.5,1.49.03,3.68.16,7.45.37,11.2.03.49-.19.97-.58,1.27-5.98,4.63-10.63,8.77-13.85,13.42,3.02-2.02,6.7-3.97,11.28-6,.7-.31,1.51-.05,1.9.6,4.13,6.93,7.29,12.92,9.65,18.3.29.65.07,1.41-.5,1.82-2.78,1.98-4.94,4.08-6.59,6.42-.28.4-.74.63-1.23.63ZM148.54,101.04l9.33.9c8.18.79,16.66,1.61,25.41,2.42,1.55-2.05,3.46-3.93,5.79-5.7-2.11-4.68-4.84-9.85-8.31-15.73-6.94,3.18-11.57,6.13-14.91,9.49-.5.5-1.28.59-1.87.21-.59-.38-.84-1.13-.59-1.79,2.99-7.97,8.91-13.81,17.49-20.51-.16-3.03-.27-6.07-.31-9.06-19.68.14-34.4.19-43.9.22,2.07,4.58,5.18,9.72,9.17,16.15,1.09.1,2.21.21,3.35.32,3.66-2.29,8.17-4.43,14.54-6.9.68-.26,1.46,0,1.83.64.37.63.23,1.44-.33,1.91-4.78,3.99-7.81,7.57-9.82,11.59-.22.44-.64.75-1.13.82-4.47.65-8.44,1.43-12.08,2.39,1.95,3.82,4.05,7.98,6.35,12.62Z"/>
    </g>
  </g>
  <g>
    <path class="cls-2" d="M124.4,115.24c.89,0,2.14.69,2.14,2.12-.06,1.31-.62,2.42-1.99,2.54-.08,0-.15.01-.22.01-1.27,0-2.03-1.2-2.15-2.23-.13-1.07,1.03-2.35,2.13-2.44.03,0,.06,0,.1,0M124.4,111.24c-.11,0-.22,0-.33,0-.03,0-.06,0-.08,0-1.64.13-3.24,1-4.38,2.39-1.1,1.34-1.6,2.94-1.41,4.51.39,3.28,3.02,5.75,6.12,5.75.2,0,.41-.01.61-.03,3.19-.3,5.44-2.84,5.6-6.34,0-.06,0-.11,0-.17,0-1.63-.62-3.16-1.75-4.3-1.16-1.17-2.76-1.83-4.38-1.83h0Z"/>
    <path class="cls-2" d="M133.94,103.13c1.37.06,2.67.32,4.05,1.27.54.37.9.83,1.22,1.37.2.3.16.87-.14,1.06-.33.2-.55.53-.88.7-.17.1-.33.16-.48.16-.18,0-.35-.07-.51-.23-1-.88-1.94-1.28-3-1.28-.6,0-1.23.13-1.93.37-.84.3-1.62.77-2.09,1.56-.43.72-.64,1.36-.82,2.2-.26,1.27-.12,2.52.5,3.67.48.87,1.23,1.41,2.17,1.78.64.26,1.31.44,2.01.53.19.03.38.04.56.04,1.05,0,1.95-.41,2.77-1.15.11-.1.19-.21.3-.31.22-.2.44-.29.66-.29.33,0,.65.19.99.49.09.06.17.15.24.21.52.38.6.62.32,1.2-.43.81-1.04,1.47-1.82,1.94-.52.3-1.09.58-1.69.75-.65.18-1.29.26-1.93.26-.95,0-1.9-.17-2.86-.41-2.92-.75-5.27-3.42-5.62-6.32-.27-2.3.1-4.41,1.57-6.22.63-.78,1.19-1.62,2.1-2.1,1.22-.63,2.69-1.19,4.31-1.26M133.94,99.13c-.06,0-.12,0-.18,0-1.97.09-3.92.64-5.97,1.7-1.55.81-2.45,1.96-3.12,2.81-.09.11-.17.22-.26.32-2.04,2.52-2.85,5.61-2.44,9.2.54,4.57,4.08,8.57,8.59,9.73,1.45.37,2.67.54,3.86.54,1.04,0,2.05-.14,3.01-.41.85-.24,1.67-.6,2.6-1.13.03-.02.05-.03.08-.05,1.39-.84,2.53-2.05,3.29-3.51.02-.04.04-.07.06-.11,1.07-2.2.57-4.46-1.29-5.97-.1-.09-.23-.21-.39-.33-.5-.41-1.03-.73-1.56-.95.55-.32.93-.68,1.15-.88,2.01-1.4,2.57-4.29,1.25-6.43-.66-1.09-1.4-1.9-2.35-2.56-2.39-1.65-4.66-1.92-6.17-1.98-.06,0-.11,0-.17,0h0ZM133.51,110.36s.06-.02.09-.04c.33-.11.51-.14.57-.14.05.02.16.09.35.25.39.36.83.65,1.3.86-.3.18-.58.39-.85.63-.15.13-.28.27-.37.37-.02.02-.04.03-.05.04-.35-.05-.68-.14-1.04-.28-.08-.03-.14-.06-.18-.08-.08-.18-.13-.44-.05-.85.08-.38.14-.59.23-.76h0Z"/>
    <g>
      <path class="cls-3" d="M147.99,107.56s-.14.04-.22.06c-.26.07-.51.12-.75.15-.26.02-.52.16-.83.41-.14.12-.33.59-.49.97-.07.17-.14.34-.21.5-.15.33-.18.8-.1,1.55.05.53.23.87.6,1.15.97.71,1.74,1.05,2.56,1.09h.17c.68,0,1.13-.22,1.56-.78.28-.38.43-1.03.6-1.79l.05-.23c.08-.41.02-.83-.21-1.27-.13-.25-.37-.52-.64-.82l-.26-.29c-.3-.33-.76-.69-1.81-.69v-2l-.02,2Z"/>
      <path class="cls-2" d="M147.93,102.35c.84,0,1.68.13,2.47.4.73.25,1.48.45,2.2.79.6.3,1.12.74,1.55,1.23,1.06,1.17,1.87,2.45,1.99,4.09.06.69.26,1.35.25,2.07-.04,1.26-.44,2.41-.94,3.56-.5,1.08-1.33,1.85-2.19,2.51-.93.68-1.97,1.24-3.22,1.42-.71.11-1.45.15-2.19.24-.07,0-.14.01-.21.01-.27,0-.54-.06-.81-.11-.75-.16-1.52-.25-2.21-.55-1.13-.47-2.11-1.22-2.98-2.14-1.03-1.06-1.8-2.84-1.86-4.31-.13-1.95.1-3.4.83-4.76.85-1.55,2.02-2.79,3.66-3.58,1.12-.56,2.39-.86,3.66-.86M148.71,115.44c1.27,0,2.32-.5,3.14-1.55.6-.82.79-1.8,1.03-2.8.19-.93.05-1.82-.38-2.65-.3-.59-.76-1.03-1.16-1.5-.9-1.02-2.06-1.38-3.32-1.38-.01,0-.02,0-.03,0-.4,0-.82.18-1.2.23-.71.06-1.32.41-1.86.85-.66.55-.93,1.44-1.26,2.21-.36.81-.35,1.68-.26,2.57.11,1.05.56,1.9,1.38,2.52,1.1.81,2.26,1.42,3.66,1.5.09,0,.18,0,.28,0M147.93,98.35c-1.89,0-3.77.44-5.43,1.27-2.27,1.11-4.09,2.87-5.39,5.24-1.1,2.06-1.5,4.18-1.31,6.92.12,2.41,1.28,5.09,2.96,6.84,1.3,1.38,2.76,2.42,4.33,3.07.89.39,1.76.55,2.47.68.15.03.31.06.46.09.38.08.95.2,1.63.2.23,0,.47-.01.7-.04.25-.03.51-.05.77-.08.49-.05.99-.09,1.53-.18,1.73-.26,3.37-.96,4.99-2.15.02-.01.04-.03.06-.04,1.11-.85,2.5-2.07,3.4-4.01.01-.03.03-.06.04-.09.59-1.37,1.2-3.04,1.26-5.01,0-.03,0-.07,0-.1,0-.78-.11-1.46-.19-1.95-.03-.16-.06-.32-.07-.48-.23-3.02-1.82-5.11-3-6.42-.78-.89-1.71-1.62-2.73-2.13-.03-.01-.06-.03-.09-.04-.77-.36-1.48-.59-2.11-.8-.17-.06-.34-.11-.51-.17-1.21-.41-2.47-.61-3.76-.61h0Z"/>
    </g>
    <path class="cls-2" d="M173,101.52c.06,0,.12,0,.18,0,.65.03.85.24.9.87.23,2.12.24,4.25.48,6.37.1,1.03.14,2.12.38,3.1.28,1.29.11,2.35.25,3.62.09.71-.25,1.18-1,1.38-.27.07-.49.11-.72.11s-.44-.04-.72-.12c-.28-.12-.47-.29-.66-.55-.42-.65-.51-1.05-.51-1.77-.02-1.08-.28-2.16-.28-3.24,0-1.55-.35-3.71-.44-5.23,0-.11-.02-.29-.17-.3-.13,0-.17.23-.21.33-.36.74-.71,1.66-1.08,2.35-.72,1.12-1.35,2.3-1.91,3.5-.24.51-.54.79-1.1.85-.13.01-.26.02-.39.02-.44,0-.84-.11-1.15-.56-.79-1.19-1.58-2.4-2.38-3.57-.17-.26-.32-.52-.49-.76-.41-.54-.91-1-1.22-1.64-.03-.04-.12-.13-.16-.13,0,0,0,0,0,0-.05,0-.04.14-.03.18l.08,1.32h.02c.13,1.4.36,2.81.35,4.2.02,1.17.31,2.34.29,3.51,0,.27.08.53.09.82.06.65-.26,1.02-.92,1.18-.44.09-.89.16-1.31.21-.04,0-.08.01-.11.01-.33,0-.63-.26-.75-.61-.21-.55-.2-1.16-.26-1.76-.26-2.21-.55-4.41-.78-6.62-.15-1.47-.06-2.94-.23-4.39-.05-.45-.16-.89-.08-1.32.07-.41.26-.62.63-.69.8-.12,1.59-.2,2.38-.2.15,0,.31,0,.46,0,.34,0,.57.15.81.45.85,1.05,1.59,2.2,2.47,3.2.67.79,1.3,1.61,1.96,2.4l.21.21c.1.1.17.15.24.15.08,0,.15-.08.23-.24,1.06-1.83,1.94-3.77,3.09-5.59.31-.44.65-.82,1.2-.92.1-.01.2-.02.3-.02.09,0,.19,0,.28,0,.05,0,.11,0,.16,0,.54-.03,1.05-.15,1.58-.15M173,97.52c-.57,0-1.06.07-1.42.11-.11.02-.23.03-.35.04h-.05s-.21,0-.21,0c-.32,0-.6.02-.88.06-.04,0-.08.01-.12.02-2.27.4-3.41,2.03-3.78,2.57-.03.05-.07.1-.1.15-.21.32-.4.65-.59.97,0,0,0-.01-.01-.02-.35-.47-.71-.96-1.1-1.45-1.25-1.55-2.75-1.91-3.82-1.94-.19,0-.38,0-.57,0-.94,0-1.92.08-2.98.24-.03,0-.05,0-.08.01-2.04.35-3.52,1.85-3.89,3.91-.18.97-.06,1.78,0,2.27,0,.06.02.12.03.19.07.61.09,1.25.1,1.94.02.74.04,1.57.13,2.44.16,1.5.34,2.99.53,4.48.09.71.17,1.43.26,2.14,0,.09.01.18.02.27.04.59.1,1.48.46,2.44.7,1.94,2.5,3.24,4.51,3.24.21,0,.42-.01.63-.04.53-.06,1.08-.15,1.62-.26.02,0,.04,0,.07-.01,2.32-.53,3.85-2.28,4.03-4.49.2.02.4.03.61.03.24,0,.48-.01.77-.04.3-.03.66-.09,1.05-.21.18.65.48,1.26.89,1.91.05.08.1.15.16.22.63.84,1.38,1.44,2.29,1.83.14.06.29.11.44.16.65.19,1.25.28,1.85.28.74,0,1.36-.14,1.76-.25,2.67-.71,4.26-3.01,3.93-5.72-.03-.29-.04-.64-.04-1.06-.01-.79-.03-1.77-.27-2.92,0-.03-.02-.07-.02-.1-.1-.43-.16-1.05-.21-1.7-.02-.29-.05-.58-.08-.86-.11-.99-.17-1.97-.23-3.01-.06-1.09-.13-2.21-.25-3.37-.26-2.59-2.1-4.33-4.7-4.45-.1,0-.23,0-.36,0h0Z"/>
  </g>
  <g>
    <path class="cls-4" d="M124.31,121.42c-2,0-3.41-1.74-3.62-3.55h0c-.11-.89.2-1.82.86-2.63.7-.85,1.68-1.4,2.64-1.48.98-.06,2.02.32,2.75,1.02.71.67,1.1,1.59,1.1,2.6-.11,2.33-1.39,3.85-3.35,4.03-.13.01-.25.02-.37.02ZM123.67,117.51c.04.26.29.96.73.9.2-.02.6-.05.65-1.12,0-.12-.05-.24-.16-.34-.16-.16-.41-.2-.49-.21-.23.02-.71.51-.72.77ZM123.67,117.52h0Z"/>
    <g>
      <path class="cls-1" d="M131.57,119.03c-2.92-.75-5.27-3.42-5.62-6.32-.27-2.3.1-4.41,1.57-6.22.63-.78,1.19-1.62,2.1-2.1,1.22-.63,2.69-1.19,4.31-1.26,1.37.06,2.67.32,4.05,1.27.54.37.9.83,1.22,1.37.2.3.16.87-.14,1.06-.33.2-.55.53-.88.7-.37.22-.68.22-.99-.08-1.56-1.37-2.99-1.58-4.92-.91-.84.3-1.62.77-2.09,1.56-.43.72-.64,1.36-.82,2.2-.26,1.27-.12,2.52.5,3.67.48.87,1.23,1.41,2.17,1.78.64.26,1.31.44,2.01.53,1.29.17,2.37-.25,3.33-1.11.11-.1.19-.21.3-.31.55-.5,1.08-.29,1.65.2.09.06.17.15.24.21.52.38.6.62.32,1.2-.43.81-1.04,1.47-1.82,1.94-.52.3-1.09.58-1.69.75-1.61.45-3.2.25-4.79-.15Z"/>
      <path class="cls-4" d="M134.42,120.94c-1.2,0-2.3-.22-3.21-.45,0,0,0,0,0,0-3.48-.9-6.31-4.09-6.73-7.6-.34-2.94.28-5.34,1.89-7.34l.28-.35c.58-.74,1.24-1.58,2.29-2.13,1.72-.89,3.33-1.36,4.93-1.43.04,0,.09,0,.13,0,1.29.05,3.01.28,4.84,1.54.87.6,1.36,1.33,1.66,1.83.56.87.47,2.38-.61,3.09-.1.07-.16.13-.22.18-.18.17-.43.4-.77.58-.91.55-1.96.44-2.75-.31-1.07-.94-1.91-1.09-3.39-.57-.64.23-1.06.52-1.29.91-.31.52-.48.97-.64,1.74-.2.97-.09,1.84.35,2.65.27.49.7.83,1.4,1.11.57.23,1.11.37,1.66.44.78.1,1.44-.12,2.12-.74.11-.13.2-.23.3-.31.48-.44,1.82-1.33,3.57.13.1.08.2.16.29.25,1.04.8,1.27,1.81.69,3-.58,1.11-1.38,1.96-2.39,2.57-.78.45-1.42.73-2.05.91-.81.23-1.6.31-2.35.31ZM137.92,106.54s.02.03.03.05c0-.02-.02-.03-.03-.05ZM138.16,106.31s.01.01.02.02c0,0-.01-.01-.02-.02Z"/>
    </g>
    <g>
      <path class="cls-1" d="M146.84,118.55c-.75-.16-1.52-.25-2.21-.55-1.13-.47-2.11-1.22-2.98-2.14-1.03-1.06-1.8-2.84-1.86-4.31-.13-1.95.1-3.4.83-4.76.85-1.55,2.02-2.79,3.66-3.58,1.85-.94,4.13-1.14,6.12-.47.73.25,1.48.45,2.2.79.6.3,1.12.74,1.55,1.23,1.06,1.17,1.87,2.45,1.99,4.09.06.69.26,1.35.25,2.07-.04,1.26-.44,2.41-.94,3.56-.5,1.08-1.33,1.85-2.19,2.51-.93.68-1.97,1.24-3.22,1.42-.71.11-1.45.15-2.19.24-.34.04-.68-.03-1.02-.1ZM151.84,113.89c.6-.82.79-1.8,1.03-2.8.19-.93.05-1.82-.38-2.65-.3-.59-.76-1.03-1.16-1.5-.91-1.02-2.08-1.38-3.36-1.38-.4,0-.82.18-1.2.23-.71.06-1.32.41-1.86.85-.66.55-.93,1.44-1.26,2.21-.36.81-.35,1.68-.26,2.57.11,1.05.56,1.9,1.38,2.52,1.1.81,2.26,1.42,3.66,1.5,1.4.08,2.54-.42,3.41-1.54Z"/>
      <path class="cls-4" d="M147.64,120.17c-.42,0-.79-.08-1.11-.14,0,0,0,0-.01,0-.17-.04-.35-.07-.52-.1-.61-.12-1.3-.24-1.97-.54-1.24-.52-2.41-1.36-3.47-2.49-1.27-1.32-2.19-3.45-2.27-5.28-.15-2.23.16-3.95,1-5.53,1.08-1.96,2.49-3.34,4.33-4.22,2.2-1.11,4.92-1.32,7.25-.54l.56.18c.58.19,1.19.38,1.81.68.76.38,1.44.92,2.04,1.6.93,1.03,2.19,2.68,2.36,4.97.02.21.06.44.1.67.08.45.16.95.16,1.52-.05,1.58-.54,2.92-1.06,4.14-.68,1.47-1.78,2.43-2.66,3.11-1.31.96-2.58,1.52-3.91,1.71-.45.07-.91.11-1.38.16-.28.03-.56.05-.84.09-.13.02-.26.02-.39.02ZM148.7,116.94c-.12,0-.23,0-.35,0-1.98-.11-3.49-1.07-4.46-1.79-1.16-.88-1.83-2.11-1.98-3.58-.1-.92-.15-2.15.38-3.33.06-.13.12-.27.17-.41.3-.74.68-1.65,1.5-2.34.89-.72,1.76-1.11,2.69-1.19.05,0,.15-.04.25-.06.3-.08.71-.18,1.12-.17,1.83,0,3.33.63,4.44,1.88l.23.26c.38.42.81.9,1.14,1.55.6,1.16.78,2.38.51,3.64l-.06.27c-.23.99-.49,2.11-1.23,3.11,0,.01-.02.02-.02.03-1.09,1.4-2.58,2.13-4.33,2.13ZM148.01,107.06h-.03c-.06,0-.23.05-.34.08-.23.06-.47.11-.69.14-.36.03-.69.2-1.09.52-.24.2-.43.67-.63,1.16-.07.17-.14.33-.21.49-.19.42-.23.96-.14,1.8.07.66.32,1.13.8,1.49,1.06.78,1.91,1.14,2.83,1.19.92.05,1.58-.24,2.13-.95.36-.5.52-1.2.71-1.99l.06-.24c.11-.54.03-1.08-.25-1.62-.16-.31-.42-.59-.71-.93l-.25-.28c-.53-.59-1.21-.86-2.19-.86Z"/>
    </g>
    <path class="cls-4" d="M159.08,119.11c-.95,0-1.83-.64-2.17-1.62-.22-.58-.27-1.19-.3-1.73l-.03-.38-.26-2.15c-.18-1.48-.36-2.96-.52-4.45-.08-.77-.1-1.52-.11-2.24-.02-.74-.03-1.45-.11-2.13-.01-.11-.03-.21-.04-.3-.06-.41-.13-.92-.02-1.5.16-.99.83-1.69,1.85-1.87,1.15-.18,2.17-.25,3.15-.21.73,0,1.39.35,1.92,1,.36.45.7.91,1.04,1.37.47.63.91,1.24,1.39,1.78.36.43.71.85,1.04,1.26.13-.25.27-.51.4-.77.58-1.11,1.19-2.26,1.89-3.38.31-.45.96-1.37,2.21-1.6.27-.04.5-.05.72-.04.06,0,.12,0,.19,0,.2-.01.39-.04.58-.06.4-.05.84-.11,1.35-.08.96.04,2.15.46,2.32,2.23.12,1.07.18,2.17.24,3.24.06,1.07.12,2.09.23,3.11.03.28.05.56.08.83.06.75.12,1.46.27,2.08.2.95.21,1.72.22,2.47,0,.46.01.89.06,1.34.18,1.45-.63,2.6-2.1,3-.71.19-1.33.25-2.25-.02-.05-.02-.11-.04-.16-.06-.66-.28-1.04-.72-1.27-1.02-.02-.03-.04-.06-.06-.09-.56-.86-.75-1.54-.75-2.59,0-.4-.06-.86-.13-1.35-.08-.6-.15-1.23-.15-1.88,0-.17,0-.36-.01-.55-.32.57-.62,1.18-.93,1.84-.49,1.03-1.26,1.61-2.31,1.71-.55.05-1.99.19-2.93-1.2l-.52-.78c-.19-.29-.39-.59-.58-.88,0,.15,0,.3,0,.45,0,.42.07.91.13,1.42.08.67.17,1.37.16,2.11,0,.06.02.12.03.18.03.17.05.35.06.53.12,1.34-.68,2.4-2.09,2.72-.5.11-.98.18-1.44.23-.11.02-.21.02-.32.02ZM159.73,116.44s0,.01,0,.02c0,0,0-.01,0-.02ZM158.49,103.61s0,.04,0,.05c.02.13.04.26.05.4.1.81.12,1.62.13,2.4.02.69.03,1.35.1,2,.16,1.46.34,2.93.52,4.4l.27,2.2c.02.19.03.34.04.49.01.17.02.33.04.47.08-.01.16-.03.25-.04-.03-.18-.05-.39-.05-.63.01-.51-.06-1.07-.13-1.67-.07-.57-.15-1.16-.16-1.78,0-.9-.1-1.79-.2-2.74-.04-.37-.08-.73-.12-1.1-.03-.1-.04-.2-.05-.3l-.08-1.32c0-.07,0-.25,0-.33.07-.74.69-1.39,1.43-1.44.21-.01.4.01.58.07-.02-.02-.03-.04-.05-.06-.29-.39-.57-.78-.87-1.16-.55,0-1.1.02-1.7.09ZM173.34,115.46c.12.03.2.02.35-.01-.05-.53-.05-.98-.06-1.42,0-.66-.02-1.23-.15-1.85-.19-.8-.27-1.66-.34-2.49-.02-.26-.04-.51-.07-.77-.12-1.08-.18-2.19-.24-3.25-.05-.9-.1-1.76-.18-2.62-.11.01-.22.03-.34.04-.26.03-.53.07-.8.08-.13,0-.27,0-.41,0-.07,0-.13,0-.2,0,.03-.02-.02.05-.19.3-.18.29-.36.59-.54.9.18-.07.35-.09.46-.1.07,0,.14,0,.21,0,.72.06,1.48.61,1.55,1.7.03.6.11,1.29.19,2.01.12,1.14.25,2.31.25,3.32,0,.47.06.97.13,1.5.07.55.14,1.11.15,1.71,0,.46.01.58.24.93,0,0,0,0,0,0ZM166.1,111.42h0s0,0,0,0ZM164.58,109.08c.35.52.7,1.05,1.05,1.59l.43.66s.06,0,.09,0h0c.26-.55.51-1.08.78-1.58-.17.1-.35.15-.5.18-.4.07-.99.03-1.58-.56l-.21-.21s-.04-.05-.07-.07ZM162.09,106.26h0s0,0,0,0ZM160.42,103.53s.01,0,.02,0c0,0-.01,0-.02,0Z"/>
  </g>
  <g>
    <path class="cls-1" d="M122.18,117.68c-.13-1.07,1.03-2.35,2.13-2.44.9-.05,2.24.64,2.23,2.12-.06,1.31-.62,2.42-1.99,2.54-1.41.15-2.24-1.13-2.37-2.22Z"/>
    <path class="cls-1" d="M131.57,119.03c-2.92-.75-5.27-3.42-5.62-6.32-.27-2.3.1-4.41,1.57-6.22.63-.78,1.19-1.62,2.1-2.1,1.22-.63,2.69-1.19,4.31-1.26,1.37.06,2.67.32,4.05,1.27.54.37.9.83,1.22,1.37.2.3.16.87-.14,1.06-.33.2-.55.53-.88.7-.37.22-.68.22-.99-.08-1.56-1.37-2.99-1.58-4.92-.91-.84.3-1.62.77-2.09,1.56-.43.72-.64,1.36-.82,2.2-.26,1.27-.12,2.52.5,3.67.48.87,1.23,1.41,2.17,1.78.64.26,1.31.44,2.01.53,1.29.17,2.37-.25,3.33-1.11.11-.1.19-.21.3-.31.55-.5,1.08-.29,1.65.2.09.06.17.15.24.21.52.38.6.62.32,1.2-.43.81-1.04,1.47-1.82,1.94-.52.3-1.09.58-1.69.75-1.61.45-3.2.25-4.79-.15Z"/>
    <path class="cls-1" d="M146.84,118.55c-.75-.16-1.52-.25-2.21-.55-1.13-.47-2.11-1.22-2.98-2.14-1.03-1.06-1.8-2.84-1.86-4.31-.13-1.95.1-3.4.83-4.76.85-1.55,2.02-2.79,3.66-3.58,1.85-.94,4.13-1.14,6.12-.47.73.25,1.48.45,2.2.79.6.3,1.12.74,1.55,1.23,1.06,1.17,1.87,2.45,1.99,4.09.06.69.26,1.35.25,2.07-.04,1.26-.44,2.41-.94,3.56-.5,1.08-1.33,1.85-2.19,2.51-.93.68-1.97,1.24-3.22,1.42-.71.11-1.45.15-2.19.24-.34.04-.68-.03-1.02-.1ZM151.84,113.89c.6-.82.79-1.8,1.03-2.8.19-.93.05-1.82-.38-2.65-.3-.59-.76-1.03-1.16-1.5-.91-1.02-2.08-1.38-3.36-1.38-.4,0-.82.18-1.2.23-.71.06-1.32.41-1.86.85-.66.55-.93,1.44-1.26,2.21-.36.81-.35,1.68-.26,2.57.11,1.05.56,1.9,1.38,2.52,1.1.81,2.26,1.42,3.66,1.5,1.4.08,2.54-.42,3.41-1.54Z"/>
    <path class="cls-1" d="M172.76,116.86c-.28-.12-.47-.29-.66-.55-.42-.65-.51-1.05-.51-1.77-.02-1.08-.28-2.16-.28-3.24,0-1.55-.35-3.71-.44-5.23,0-.11-.02-.29-.17-.3-.13,0-.17.23-.21.33-.36.74-.71,1.66-1.08,2.35-.72,1.12-1.35,2.3-1.91,3.5-.24.51-.54.79-1.1.85-.58.06-1.14.04-1.54-.54-.79-1.19-1.58-2.4-2.38-3.57-.17-.26-.32-.52-.49-.76-.41-.54-.91-1-1.22-1.64-.03-.04-.12-.13-.17-.12s-.04.14-.03.18l.08,1.32h.02c.13,1.4.36,2.81.35,4.2.02,1.17.31,2.34.29,3.51,0,.27.08.53.09.82.06.65-.26,1.02-.92,1.18-.44.09-.89.16-1.31.21-.38.07-.73-.2-.87-.6-.21-.55-.2-1.16-.26-1.76-.26-2.21-.55-4.41-.78-6.62-.15-1.47-.06-2.94-.23-4.39-.05-.45-.16-.89-.08-1.32.07-.41.26-.62.63-.69.96-.15,1.89-.22,2.84-.19.34,0,.57.15.81.45.85,1.05,1.59,2.2,2.47,3.2.67.79,1.3,1.61,1.96,2.4l.21.21c.21.21.33.2.47-.1,1.06-1.83,1.94-3.77,3.09-5.59.31-.44.65-.82,1.2-.92.24-.04.49,0,.74-.02.6-.03,1.16-.18,1.76-.15.65.03.85.24.9.87.23,2.12.24,4.25.48,6.37.1,1.03.14,2.12.38,3.1.28,1.29.11,2.35.25,3.62.09.71-.25,1.18-1,1.38-.53.14-.87.16-1.44,0Z"/>
  </g>
</svg>