<?xml version="1.0" encoding="UTF-8"?>
<svg id="Layer_4" data-name="Layer 4" xmlns="http://www.w3.org/2000/svg" viewBox="0 0 207.43 124.46">
  <defs>
    <style>
      .cls-1 {
        fill: #4964d1;
      }

      .cls-2 {
        fill: #eee;
      }

      .cls-3 {
        fill: #47c16b;
        stroke: #252525;
        stroke-linejoin: round;
        stroke-width: 3px;
      }
    </style>
  </defs>
  <g>
    <g>
      <path class="cls-1" d="M62.52,78.45c-.64,0-1.28-.12-1.88-.37-1.6-.65-2.75-2.08-3.04-3.78-1.15-6.67-5.1-12.82-11.46-21.72-.47-.05-.94-.1-1.42-.14.32,2.45.53,4.84.62,7.2.05,1.33-.43,2.62-1.34,3.6-.91.97-2.16,1.55-3.49,1.59-9.28.31-18.6.65-28.51,1.03-.06,0-.13,0-.19,0-1.44,0-2.81-.62-3.76-1.7-.99-1.13-1.42-2.65-1.17-4.14,2.64-15.44,4.7-29.63,3.04-46.92-.14-1.44.36-2.87,1.35-3.92.95-1,2.26-1.55,3.62-1.55.07,0,.15,0,.22,0,11.05.5,21.24.89,31.17,1.21,1.71.05,3.28.98,4.15,2.46,6.19,10.48,11.52,18.8,15.8,25.49,7.26,11.34,12.06,18.84,14.02,25.9.55,1.97-.16,4.07-1.78,5.31-2.8,2.14-6.06,4.49-9.83,7.21l-3.19,2.3c-.87.63-1.89.95-2.93.95Z"/>
      <path class="cls-2" d="M14.89,12.61c10.8.49,21.16.89,31.23,1.21,16.43,27.83,26.47,39.98,29.31,50.19-3.5,2.68-7.79,5.74-12.91,9.44-1.43-8.24-6.26-15.36-13.64-25.61-3.19-.33-6.59-.68-10.21-1.04.95,4.55,1.5,8.81,1.66,13.03-8.21.27-17.64.61-28.53,1.03,2.74-16.01,4.78-30.58,3.09-48.24M14.89,2.61c-2.73,0-5.35,1.12-7.25,3.11-2,2.1-2.98,4.96-2.71,7.84,1.6,16.67-.41,30.52-2.99,45.6-.51,2.97.35,6.01,2.34,8.28,1.9,2.17,4.65,3.41,7.52,3.41.13,0,.26,0,.38,0,9.82-.38,19.14-.71,28.48-1.03,2.66-.09,5.17-1.23,6.98-3.18.38-.4.72-.84,1.02-1.29,2.1,3.57,3.46,6.69,4,9.8.59,3.4,2.89,6.26,6.08,7.56,1.22.49,2.5.74,3.77.74,2.07,0,4.13-.64,5.86-1.9,1.09-.79,2.14-1.54,3.15-2.27,3.82-2.75,7.12-5.13,9.98-7.33,3.24-2.48,4.64-6.68,3.55-10.61-2.16-7.79-7.12-15.53-14.63-27.26-4.26-6.66-9.56-14.94-15.7-25.34-1.74-2.95-4.87-4.8-8.29-4.91-9.95-.32-20.12-.71-31.1-1.21-.15,0-.3-.01-.45-.01h0Z"/>
    </g>
    <g>
      <path class="cls-1" d="M100.96,63.84c-5.83-.05-11.95-.27-19.92-.62-1.92-.08-3.62-1.26-4.38-3.02-1.76-4.09-4.79-9.34-9-16.6-4.04-6.97-9.06-15.65-15.28-27.28-.87-1.63-.77-3.61.26-5.14.93-1.39,2.5-2.21,4.15-2.21.17,0,.34,0,.51.03,6.35.65,12.58,1.32,18.66,1.97l3.89.42c1.75.19,3.27,1.28,4.01,2.88,2.43,5.29,4.59,9.94,6.5,14.05.32.7.48,1.46.47,2.22,0,0-.08,3.76-.08,3.83,3.51.44,6.72.77,9.79,1.03,2.49.21,4.45,2.22,4.58,4.72l.19,3.57c.37,7.04.6,11.29.69,15.03.03,1.35-.48,2.66-1.43,3.63-.94.96-2.22,1.5-3.57,1.5h-.04Z"/>
      <path class="cls-2" d="M56.8,13.96c7.7.79,15.23,1.61,22.53,2.39,2.44,5.29,4.6,9.96,6.51,14.07-.2,8.81-.25,14.76-.78,19.45,1.67-2.86,3.14-6.22,4.85-10.57,3.55.44,6.92.8,10.22,1.08.48,9.07.77,14.2.87,18.46-5.53-.04-11.36-.25-19.74-.61-3.6-8.37-11.54-20.12-24.46-44.26M56.79,3.96c-3.31,0-6.43,1.64-8.3,4.43-2.06,3.07-2.26,7.03-.51,10.29,6.26,11.7,11.31,20.42,15.36,27.43,4.11,7.11,7.09,12.25,8.73,16.07,1.52,3.53,4.92,5.87,8.75,6.04,8.03.35,14.19.58,20.1.62.03,0,.05,0,.08,0,2.68,0,5.25-1.08,7.13-2.99,1.9-1.93,2.93-4.55,2.87-7.26-.09-3.8-.32-8.08-.7-15.15l-.19-3.59c-.26-4.99-4.17-9.03-9.16-9.44-1.66-.14-3.36-.3-5.14-.49-.06-1.29-.38-2.55-.92-3.72-2.18-4.68-4.3-9.26-6.49-14.03-1.47-3.2-4.52-5.39-8.02-5.76l-3.9-.42c-6.05-.65-12.31-1.32-18.68-1.98-.34-.04-.68-.05-1.02-.05h0Z"/>
    </g>
    <g>
      <path class="cls-1" d="M122.4,65.11c-7.74-.44-12.85-.82-17.64-1.29-2.72-.27-4.72-2.67-4.49-5.4.31-3.69.76-7.89,1.5-14.86.68-6.41,1.62-15.2,2.9-27.81.24-2.33,2.05-4.18,4.38-4.46,3.65-.44,7.37-.9,11.14-1.36,6.21-.76,12.57-1.54,19.08-2.3.19-.02.39-.03.58-.03,1.5,0,2.93.67,3.89,1.86,1.08,1.33,1.4,3.13.85,4.75-1.91,5.62-3.81,11.03-5.99,17.05-.47,1.3-1.46,2.34-2.72,2.89-1.32.57-2.6,1.12-3.85,1.67.12.78.06,1.58-.19,2.35,0,0-1.43,4.34-1.7,5.15.56.37,1.05.85,1.43,1.42.94,1.43,1.09,3.24.39,4.8-2.1,4.68-3.65,8.46-4.4,11.71-.53,2.28-2.56,3.87-4.87,3.87-.1,0-.19,0-.29,0Z"/>
      <path class="cls-2" d="M139.85,12.6c-2.22,6.55-4.21,12.13-5.95,16.96-5.17,2.23-9.92,4.34-14.22,6.27,2.43.31,4.89.57,7.41.78-1.02,3.1-1.92,5.82-2.7,8.24-2.27.94-4.39,1.82-6.37,2.65,1.52.04,3.08.05,4.71.05,1.5,0,3.05-.01,4.67-.04-2.35,5.23-3.89,9.08-4.71,12.62-7.18-.41-12.38-.78-17.43-1.28.6-7.08,1.77-16.63,4.39-42.58,9.66-1.16,19.75-2.44,30.2-3.66M139.85,2.6c-.38,0-.77.02-1.16.07-6.51.76-12.88,1.54-19.05,2.3-3.79.47-7.52.92-11.19,1.36-4.65.56-8.28,4.26-8.76,8.92-1.28,12.61-2.21,21.39-2.9,27.8-.75,6.99-1.2,11.21-1.51,14.95-.46,5.45,3.54,10.26,8.98,10.79,4.86.48,10.03.86,17.84,1.31.19.01.39.02.58.02,4.62,0,8.68-3.19,9.74-7.74.66-2.86,2.12-6.38,4.09-10.79,1.38-3.09,1.11-6.66-.71-9.5l.78-2.36c.06-.17.11-.34.15-.51.37-.16.74-.32,1.11-.48,2.53-1.09,4.5-3.18,5.44-5.78,2.19-6.03,4.1-11.48,6.02-17.15,1.1-3.25.46-6.83-1.69-9.5-1.91-2.36-4.78-3.71-7.78-3.71h0Z"/>
    </g>
    <g>
      <path class="cls-1" d="M127.33,65c-1.53,0-2.98-.7-3.93-1.92-1.05-1.34-1.35-3.11-.79-4.72,1.8-5.22,4.95-10.85,9.93-19.59.43-.76,1.05-1.39,1.8-1.83-.28-1.05-.21-2.17.21-3.2l1.34-3.22c2.34-5.63,4.99-12.01,8.1-19.89.74-1.88,2.55-3.13,4.57-3.16,6.85-.11,13.95-.25,21.12-.41.04,0,.08,0,.11,0,.83,0,1.64.21,2.36.59.73-.44,1.57-.69,2.45-.71,5.93-.14,11.92-.3,18.01-.48.05,0,.1,0,.14,0,1.47,0,2.87.65,3.83,1.78.98,1.17,1.38,2.72,1.07,4.22-.64,3.15-1.28,6.26-1.91,9.32-.48,2.32-.95,4.61-1.41,6.87-.27,1.31-1.04,2.44-2.12,3.16.44.69.71,1.48.77,2.32.44,6.21,1.48,12.77,3.37,21.27.32,1.43,0,2.93-.9,4.11-.89,1.17-2.24,1.89-3.71,1.97-12.47.68-22.98,1.27-31.93,1.77-.09,0-.19,0-.28,0-2.32,0-4.36-1.61-4.87-3.9-.05-.21-.09-.42-.14-.63-.37.6-.71,1.19-1.05,1.77-.81,1.4-2.25,2.33-3.87,2.48l-21.79,2.01c-.15.01-.31.02-.46.02Z"/>
      <path class="cls-2" d="M192.74,11.48c-1.13,5.55-2.26,10.95-3.33,16.18-3.11,1.05-6.2,2.1-9.24,3.13,2.31,1.29,4.89,2.51,7.79,3.71.53,7.45,1.84,14.61,3.48,22-12.47.68-22.99,1.27-31.93,1.77-1.07-4.7-1.43-9.37-.99-14.64-3.75,5.44-6.94,10.12-9.4,14.37-8.9.82-15.96,1.47-21.79,2.01,1.69-4.9,4.83-10.46,9.54-18.75,2.66-1.4,5.48-2.89,8.44-4.43-2.15-.34-4.19-.73-6.15-1.16,2.55-6.15,5.7-13.67,9.47-23.19,6.97-.11,14.01-.25,21.15-.41-.52,3.13-.9,5.99-1.13,8.63,1.99-2.81,4.02-5.73,6.06-8.74,5.93-.14,11.94-.3,18.04-.48M192.75,1.48c-.1,0-.19,0-.29,0-6.08.18-12.14.34-17.99.48-.84.02-1.66.14-2.45.37-.73-.17-1.48-.25-2.24-.25-.08,0-.15,0-.23,0-7.11.16-14.2.3-21.08.4-4.05.06-7.65,2.56-9.14,6.32-3.1,7.84-5.74,14.19-8.06,19.8l-1.35,3.25c-.4.97-.64,1.98-.73,3.01-.38.45-.72.94-1.01,1.46-4.61,8.1-8.26,14.51-10.31,20.43-1.11,3.21-.51,6.76,1.58,9.44,1.91,2.43,4.81,3.83,7.87,3.83.3,0,.61-.01.92-.04l7.95-.73,13.83-1.27c1.45-.13,2.83-.58,4.06-1.29,1.57,1.01,3.44,1.59,5.41,1.59.19,0,.38,0,.57-.02,8.94-.5,19.45-1.09,31.92-1.77,2.93-.16,5.65-1.6,7.42-3.94s2.43-5.34,1.79-8.21c-1.83-8.25-2.84-14.58-3.26-20.54-.02-.26-.05-.51-.08-.77.64-1.01,1.11-2.15,1.35-3.36.46-2.27.94-4.56,1.42-6.89.63-3.05,1.27-6.15,1.91-9.3.61-2.99-.18-6.1-2.15-8.43-1.9-2.26-4.71-3.56-7.65-3.56h0Z"/>
    </g>
    <g>
      <path class="cls-1" d="M45.36,43.85c-.22,0-.44-.01-.66-.04l-7.6-1.01c-2.35-.31-4.15-2.23-4.33-4.59-.21-2.83-.62-5.8-1.25-9.09-.44-2.25.72-4.51,2.8-5.48.68-.31,1.39-.47,2.11-.47,1.48,0,2.92.65,3.89,1.86,2.72,3.37,5.61,6.83,8.83,10.56,1.35,1.57,1.6,3.82.61,5.64-.88,1.63-2.58,2.62-4.39,2.62Z"/>
      <path class="cls-2" d="M36.43,28.16c3.05,3.78,6.07,7.36,8.93,10.68-2.43-.32-4.96-.66-7.6-1.01-.22-3.02-.66-6.2-1.33-9.67M36.43,18.16c-1.42,0-2.86.3-4.21.93-4.16,1.94-6.47,6.46-5.6,10.97.6,3.09.98,5.87,1.17,8.5.34,4.73,3.96,8.56,8.65,9.19l6.42.86,1.18.16c.44.06.89.09,1.32.09,3.63,0,7.03-1.98,8.79-5.24,1.98-3.65,1.49-8.14-1.21-11.29-3.18-3.69-6.04-7.11-8.73-10.44-1.95-2.41-4.83-3.72-7.78-3.72h0Z"/>
    </g>
    <g>
      <path class="cls-1" d="M13.86,117.99c-1.36,0-2.66-.55-3.61-1.54-1.05-1.09-1.54-2.6-1.35-4.1,1.9-14.79,2.44-28.47,1.75-44.35-.12-2.72,1.96-5.03,4.67-5.21,14.32-.92,26.05-1.68,35.79-2.3.11,0,.21-.01.32-.01,1.85,0,3.57,1.03,4.43,2.69,2.56,4.91,4.08,9.5,4.74,14.33.13-.01.27-.02.41-.02,1.25,0,2.49.47,3.44,1.37,1.36,1.29,2.58,2.63,3.72,4.09.74.94,1.11,2.12,1.05,3.32-.29,5.97-1.39,13.31-2.8,22.29-.34,2.21-2.11,3.91-4.32,4.19-14.31,1.78-31.18,3.79-47.8,5.23-.14.01-.29.02-.43.02Z"/>
      <path class="cls-2" d="M51.42,65.47c2.42,4.63,3.91,9.04,4.38,14.15-5.63,4.7-12,10.19-18.46,16.14,8.38-4.77,16.52-9.33,23.66-13.29,1.17,1.11,2.24,2.28,3.22,3.54-.27,5.6-1.28,12.45-2.74,21.76-15.13,1.88-31.5,3.81-47.62,5.21,2.11-16.41,2.42-30.69,1.78-45.21,14.32-.92,26.05-1.68,35.78-2.3M51.43,55.47c-.21,0-.43,0-.64.02-9.73.62-21.46,1.38-35.79,2.3-5.43.35-9.58,4.98-9.35,10.42.68,15.59.16,29-1.71,43.49-.39,3,.61,6.02,2.7,8.2,1.89,1.97,4.5,3.08,7.21,3.08.29,0,.58-.01.87-.04,16.67-1.45,33.61-3.47,47.98-5.25,4.43-.55,7.96-3.97,8.65-8.38,1.43-9.13,2.54-16.6,2.85-22.82.12-2.39-.63-4.75-2.1-6.63-1.3-1.67-2.68-3.19-4.23-4.65-.88-.83-1.88-1.48-2.95-1.94-.91-4.14-2.42-8.18-4.63-12.42-1.73-3.32-5.16-5.38-8.86-5.38h0Z"/>
    </g>
    <g>
      <path class="cls-1" d="M64.93,115.41c-1.48,0-2.89-.66-3.84-1.8-.98-1.18-1.37-2.74-1.05-4.24.73-3.48,1.42-6.65,2.05-9.57,2.35-10.87,3.9-18.05,4.24-23.58.08-1.25.62-2.42,1.52-3.29l1.92-1.85c3.92-3.77,7.01-6.75,9.45-9.35.95-1.01,2.27-1.57,3.64-1.57.18,0,.36,0,.54.03,1.56.17,2.94,1.05,3.75,2.4.38.62.73,1.25,1.06,1.88.13-.38.25-.74.37-1.1.65-2.04,2.52-3.43,4.66-3.48,3.73-.08,6.91-.11,10-.11h1.84c1.49.01,2.89.68,3.84,1.83s1.33,2.66,1.05,4.12c-.73,3.8-1.41,8.3-2.55,15.75-1.02,6.66-2.42,15.79-4.55,29.09-.39,2.41-2.45,4.18-4.89,4.21-10.61.11-21.37.32-32.89.65-.05,0-.09,0-.14,0Z"/>
      <path class="cls-2" d="M103.23,64.78c.6,0,1.21,0,1.81,0-1.4,7.31-2.57,16.59-7.13,44.98-10.86.11-21.79.33-32.98.65,3.54-16.74,5.93-26.41,6.39-33.88,4.82-4.65,8.61-8.26,11.54-11.37,2.39,3.97,3.62,7.94,4.66,14.04,2.82-6.43,4.64-10.64,5.81-14.32,3.6-.08,6.75-.11,9.91-.11M103.23,54.78c-3.15,0-6.36.04-10.12.12-1.91.04-3.72.62-5.25,1.62-1.19-.69-2.53-1.14-3.94-1.29-.36-.04-.72-.06-1.07-.06-2.74,0-5.37,1.12-7.27,3.14-2.37,2.51-5.43,5.46-9.3,9.19l-1.91,1.84c-1.8,1.74-2.88,4.08-3.04,6.58-.32,5.16-1.84,12.2-4.14,22.85-.63,2.92-1.32,6.1-2.05,9.58-.63,3,.14,6.12,2.11,8.47,1.9,2.28,4.72,3.59,7.68,3.59.09,0,.19,0,.28,0,11.54-.33,22.27-.54,32.8-.64,4.87-.05,9-3.6,9.77-8.41,2.14-13.32,3.54-22.46,4.56-29.13,1.13-7.39,1.81-11.86,2.52-15.56.56-2.92-.21-5.94-2.1-8.23-1.89-2.29-4.7-3.63-7.67-3.64-.62,0-1.24,0-1.86,0h0Z"/>
    </g>
    <g>
      <path class="cls-1" d="M145.35,117.22c-7.28-.2-14.49-.37-21.63-.52-2.47-.05-4.54-1.91-4.85-4.36-.85-6.65-1.65-12.21-2.37-17.01-2.88-.15-5.61-.24-8.34-.3-1.35-.03-2.63-.6-3.55-1.58-.92-.98-1.41-2.29-1.35-3.64.13-2.99.24-5.63.33-7.97.34-8.58.53-13.31,1.24-17.78.39-2.44,2.5-4.22,4.93-4.22.12,0,.25,0,.37.01,5.88.44,12.65,1.02,23.11,1.93,1.68.15,3.18,1.13,3.98,2.63,2.22,4.16,5.67,9.27,10.03,15.73l2.32,3.44c1.04,1.54,1.13,3.54.25,5.18-.88,1.61-2.56,2.62-4.39,2.62-.03,0-.05,0-.08,0-1.04-.02-2.06-.03-3.05-.03,2.24,5.3,4.86,11.57,7.83,19.03.62,1.56.42,3.33-.55,4.71-.94,1.34-2.47,2.14-4.1,2.14-.04,0-.09,0-.13,0Z"/>
      <path class="cls-2" d="M109.77,64.83c5.91.44,12.8,1.03,23.05,1.93,2.73,5.11,6.95,11.18,12.61,19.61-1.71-.03-3.36-.04-4.95-.04-.85,0-1.68,0-2.49.01-1.81-1.62-3.54-3.16-5.17-4.61,3.02,7.26,7.24,16.82,12.68,30.49-7.29-.2-14.5-.37-21.66-.53-1.73-13.5-3.26-22.74-4.32-29.61-.79,2.39-1.6,5.11-2.52,8.26-2.97-.15-5.86-.26-8.73-.32.6-13.61.67-19.83,1.51-25.19M109.76,54.83c-4.88,0-9.09,3.55-9.87,8.44-.75,4.76-.96,9.88-1.3,18.37-.09,2.34-.2,4.96-.33,7.95-.12,2.69.86,5.32,2.7,7.28,1.84,1.96,4.4,3.1,7.09,3.16,1.36.03,2.72.06,4.1.11.55,3.79,1.14,8.03,1.75,12.83.63,4.91,4.76,8.62,9.71,8.72,6.68.14,13.75.31,21.6.52.09,0,.18,0,.27,0,3.26,0,6.33-1.59,8.2-4.28,1.92-2.76,2.33-6.3,1.09-9.42-1.92-4.81-3.68-9.13-5.3-13.01,1.99-.88,3.67-2.4,4.74-4.37,1.78-3.27,1.59-7.26-.49-10.35-.8-1.19-1.58-2.34-2.32-3.45-4.28-6.34-7.67-11.36-9.77-15.29-1.59-2.98-4.58-4.96-7.95-5.25-10.46-.91-17.23-1.5-23.18-1.94-.25-.02-.5-.03-.75-.03h0Z"/>
    </g>
    <g>
      <path class="cls-1" d="M188.68,115.45c-.15,0-.31,0-.46-.02-9.07-.84-17.85-1.69-26.31-2.51l-10.13-.98c-1.72-.17-3.24-1.21-4.01-2.76-2.73-5.53-5.23-10.44-7.52-14.93-.68-1.33-.73-2.89-.13-4.26.59-1.37,1.77-2.4,3.2-2.82.75-.22,1.51-.42,2.28-.63-.08-.1-.15-.21-.22-.32-4.97-8-8.67-14.11-10.95-19.86-.61-1.54-.42-3.28.51-4.65.93-1.37,2.47-2.19,4.12-2.2,12.22-.04,26.98-.09,47.62-.24h.04c2.74,0,4.98,2.21,5,4.96.03,3.62.15,7.33.36,11.03.09,1.64-.63,3.23-1.93,4.24-.66.51-1.31,1.02-1.93,1.52.86.41,1.61,1.07,2.12,1.94,4.21,7.06,7.43,13.17,9.85,18.69.95,2.17.25,4.7-1.68,6.08-2.46,1.75-4.34,3.58-5.76,5.59-.94,1.33-2.47,2.12-4.08,2.12Z"/>
      <path class="cls-2" d="M186.73,64.28c.03,3.74.16,7.49.37,11.27-8.73,6.76-14.72,12.58-17.62,20.33,3.93-3.95,9.33-7.13,16.58-10.36,3.5,5.87,6.91,12.08,9.56,18.14-2.86,2.04-5.16,4.25-6.95,6.78-12.74-1.18-24.92-2.38-36.42-3.48-2.81-5.68-5.32-10.63-7.55-14.99,4.18-1.21,8.73-2.15,14.04-2.92,2.24-4.48,5.59-8.23,10.2-12.07-6.01,2.34-10.82,4.55-14.71,7.04-1.58-.15-3.11-.3-4.6-.44-4.89-7.86-8.45-13.75-10.55-19.06,11.38-.04,26.49-.09,47.64-.24M186.73,54.28s-.05,0-.07,0c-20.48.15-35.31.2-47.6.24-3.31.01-6.4,1.66-8.25,4.39-1.85,2.74-2.23,6.22-1.02,9.29,1.96,4.95,4.82,10,8.53,16.08-1.19.99-2.15,2.26-2.78,3.72-1.19,2.74-1.09,5.87.27,8.52,2.27,4.44,4.74,9.31,7.49,14.87,1.53,3.11,4.56,5.2,8.01,5.53,3.34.32,6.74.65,10.2.98,8.45.82,17.2,1.66,26.25,2.5.31.03.62.04.92.04,3.23,0,6.29-1.56,8.17-4.23,1.09-1.54,2.59-2.98,4.58-4.4,3.85-2.75,5.26-7.82,3.36-12.15-2.39-5.46-5.52-11.45-9.56-18.28,1.32-1.83,1.99-4.09,1.86-6.4-.21-3.62-.33-7.25-.36-10.79-.05-5.49-4.51-9.92-10-9.92h0Z"/>
    </g>
  </g>
  <g>
    <path class="cls-3" d="M14.89,12.61c1.69,17.65-.35,32.23-3.09,48.24,10.9-.42,20.32-.75,28.53-1.03-.16-4.22-.71-8.48-1.66-13.03,3.62.36,7.01.71,10.21,1.04,7.38,10.25,12.21,17.37,13.64,25.61,5.11-3.7,9.41-6.76,12.91-9.44-2.84-10.21-12.87-22.36-29.31-50.19-10.07-.32-20.43-.73-31.23-1.21Z"/>
    <path class="cls-3" d="M56.8,13.96c12.92,24.14,20.86,35.89,24.46,44.26,8.39.36,14.22.57,19.74.61-.11-4.26-.4-9.4-.87-18.46-3.3-.27-6.67-.63-10.22-1.08-1.71,4.35-3.18,7.71-4.85,10.57.53-4.69.58-10.64.78-19.45-1.91-4.11-4.07-8.77-6.51-14.07-7.3-.78-14.82-1.6-22.53-2.39Z"/>
    <path class="cls-3" d="M109.65,16.26c-2.63,25.95-3.8,35.51-4.39,42.58,5.06.5,10.25.86,17.43,1.28.82-3.54,2.36-7.39,4.71-12.62-3.38.06-6.47.06-9.38,0,1.99-.82,4.1-1.71,6.37-2.65.78-2.42,1.68-5.14,2.7-8.24-2.53-.21-4.98-.47-7.41-.78,4.3-1.93,9.05-4.04,14.22-6.27,1.75-4.83,3.73-10.41,5.95-16.96-10.45,1.22-20.54,2.5-30.2,3.66Z"/>
    <path class="cls-3" d="M148.63,12.47c-3.77,9.52-6.92,17.04-9.47,23.19,1.96.43,4,.81,6.15,1.16-2.96,1.55-5.78,3.03-8.44,4.43-4.72,8.29-7.85,13.85-9.54,18.75,5.83-.54,12.89-1.19,21.79-2.01,2.46-4.25,5.65-8.93,9.4-14.37-.44,5.27-.07,9.94.99,14.64,8.95-.5,19.46-1.09,31.93-1.77-1.64-7.38-2.94-14.54-3.48-22-2.9-1.2-5.48-2.42-7.79-3.71,3.04-1.04,6.13-2.08,9.24-3.13,1.07-5.23,2.2-10.63,3.33-16.18-6.1.18-12.1.34-18.04.48-2.03,3.01-4.06,5.93-6.06,8.74.23-2.64.61-5.5,1.13-8.63-7.14.16-14.18.3-21.15.41Z"/>
    <path class="cls-3" d="M36.43,28.16c.67,3.47,1.11,6.65,1.33,9.67,2.64.35,5.17.69,7.6,1.01-2.86-3.33-5.88-6.91-8.93-10.68Z"/>
    <path class="cls-3" d="M15.64,67.78c14.32-.92,26.05-1.68,35.78-2.3,2.42,4.63,3.91,9.04,4.38,14.15-5.63,4.7-12,10.19-18.46,16.14,8.38-4.77,16.52-9.33,23.66-13.29,1.17,1.11,2.24,2.28,3.22,3.54-.27,5.6-1.28,12.45-2.74,21.76-15.13,1.88-31.5,3.81-47.62,5.21,2.11-16.41,2.42-30.69,1.78-45.21Z"/>
    <path class="cls-3" d="M71.32,76.54c-.46,7.46-2.85,17.14-6.39,33.87,11.2-.32,22.12-.54,32.98-.65,4.56-28.39,5.74-37.67,7.13-44.98-3.78-.02-7.43.02-11.72.11-1.17,3.68-3,7.89-5.81,14.32-1.04-6.1-2.27-10.07-4.66-14.04-2.93,3.1-6.72,6.72-11.54,11.37Z"/>
    <path class="cls-3" d="M109.77,64.83c-.85,5.36-.92,11.58-1.51,25.19,2.87.06,5.77.16,8.73.32.92-3.15,1.73-5.87,2.52-8.26,1.06,6.87,2.58,16.11,4.32,29.61,7.16.15,14.37.33,21.66.53-5.44-13.67-9.66-23.23-12.68-30.49,1.63,1.45,3.36,2.99,5.17,4.61,2.36-.02,4.83-.01,7.45.03-5.67-8.43-9.89-14.5-12.61-19.61-10.25-.89-17.14-1.49-23.05-1.93Z"/>
    <path class="cls-3" d="M139.09,64.52c2.1,5.31,5.66,11.2,10.55,19.06,1.49.14,3.02.29,4.6.44,3.89-2.49,8.7-4.71,14.71-7.04-4.6,3.84-7.96,7.59-10.2,12.07-5.31.77-9.86,1.72-14.04,2.92,2.23,4.36,4.74,9.31,7.55,14.99,11.5,1.1,23.68,2.3,36.42,3.48,1.79-2.53,4.09-4.74,6.95-6.78-2.65-6.06-6.06-12.27-9.56-18.14-7.25,3.23-12.65,6.4-16.58,10.36,2.9-7.76,8.9-13.57,17.62-20.33-.22-3.79-.34-7.54-.37-11.27-21.16.15-36.26.21-47.64.24Z"/>
  </g>
</svg>