<?xml version="1.0" encoding="UTF-8"?>
<svg id="Layer_1" data-name="Layer 1" xmlns="http://www.w3.org/2000/svg" viewBox="0 0 1744.91 987.27">
  <defs>
    <style>
      .cls-1 {
        fill: none;
        stroke: #252525;
        stroke-linecap: round;
        stroke-linejoin: round;
        stroke-width: 30px;
      }

      .cls-2 {
        fill: #252525;
      }

      .cls-3 {
        fill: #eee;
      }
    </style>
  </defs>
  <g>
    <path class="cls-3" d="M820.51,580.52s46.35-25.67,75.81-25.67c37.96,0,58.35,41.36,49.29,90.08-25.05,134.62-117.27,254.37-188.49,264.45-32.56,4.61-94.15-2.01-125.54-4.76-29.29-3.24-35.77-21.92-35.77-122.73,0-134.6,62.58-232.87,125.25-232.87,56.52,0,86.86,7.72,96.7,24.61l2.76,6.88Z"/>
    <path class="cls-1" d="M820.51,580.52s46.35-25.67,75.81-25.67c37.96,0,58.35,41.36,49.29,90.08-25.05,134.62-117.27,254.37-188.49,264.45-32.56,4.61-94.15-2.01-125.54-4.76-29.29-3.24-35.77-21.92-35.77-122.73,0-134.6,62.58-232.87,125.25-232.87,70.55,0,100.31,12.03,100.31,38.9,0,25.38-28.13,90.78-56.09,134.82"/>
  </g>
  <g>
    <path class="cls-3" d="M582.72,487.35c-10.82,97.44-35.73,178.12-74.67,256.55,29.43-54.78,53.86-86.17,84.8-86.17,32.76,0,51.46,26.04,51.46,56.38,0,106.29-39.31,206.85-122.24,206.85-29.68,0-72.18-22.12-56.55-50.3-16.75,15.3-40.26,28.18-69.13,28.18-31.14,0-62.82-49.93-62.82-108.38,0-88.24,49.75-194.01,69.76-231.37,5.58-10.47,46.06-83.97,115.16-88.3,27.9-1.75,50.47,8.4,64.23,16.56Z"/>
    <g>
      <path class="cls-1" d="M403.33,559.08c-20.01,37.37-69.76,143.14-69.76,231.37,0,58.45,31.68,108.38,62.82,108.38,28.87,0,52.38-12.88,69.13-28.18"/>
      <path class="cls-1" d="M582.72,487.35c-10.82,97.44-35.73,178.12-74.67,256.55,29.43-54.78,53.86-86.17,84.8-86.17,32.76,0,51.46,26.04,51.46,56.38,0,106.29-39.31,206.85-122.24,206.85-29.68,0-72.18-22.12-56.55-50.3"/>
    </g>
  </g>
  <g>
    <path class="cls-3" d="M1335.83,638.13c33.38-16.8,83.44-33.28,112.18-33.28,15.36,0,22.91,4.18,22.91,11.22,0,41.43-198.52,185.16-198.52,244.77,0,49.87,54.33,73.22,143.95,73.22s176.75-34.16,176.75-34.16c21.91-13.88,34.48-33.72,41.61-57.04,0,0,22.87-113.84,22.87-140.58,0-21.6-10.92-40.37-32.5-40.37-52.01,0-97.22,114.02-137.75,114.02-21.24,0-30.8-11.39-30.8-11.39-16.92-17.68-11.27-31.78,9.05-43.54,47.19-35.6,127.52-122.6,127.52-138.12,0-26.08-113.44-52.65-336.09-51.97-67.74,1.74-65.97,83.96-67.49,162.36,0,15.88,19.45,33.98,38.8,33.98,27.34,0,87.64-19.18,116.45-39.61-28.77-19.21-29.78-35.5-8.93-49.5Z"/>
    <g>
      <path class="cls-1" d="M1465.57,720.99c47.19-35.6,127.52-122.6,127.52-138.12,0-26.08-113.44-52.65-336.09-51.97-67.74,1.74-65.97,83.96-67.49,162.36,0,15.88,19.45,33.98,38.8,33.98,27.34,0,87.64-19.18,116.45-39.61"/>
      <path class="cls-1" d="M1335.83,638.13c33.38-16.8,83.44-33.28,112.18-33.28,15.36,0,22.91,4.18,22.91,11.22,0,41.43-198.52,185.16-198.52,244.77,0,49.87,54.33,73.22,143.95,73.22s176.75-34.16,176.75-34.16"/>
      <path class="cls-1" d="M1456.52,764.53s9.56,11.39,30.8,11.39c40.53,0,85.74-114.02,137.75-114.02,21.58,0,32.5,18.77,32.5,40.37,0,26.75-22.87,140.58-22.87,140.58"/>
    </g>
  </g>
  <g>
    <path class="cls-3" d="M940.87,729.99c-20.36,0-32.95-11.17-32.95-25.84,0-104.37,85.67-151.33,132.66-121.32,6.21-43.41,30.15-56.36,89.27-56.36,39.91,0,39.31,49.45,12.56,87.2,12.49-22.8,31.74-27.34,55.43-27.34,16.87,0,30.56,6.38,25.13,41.39s-48.22,102.27-88.85,102.27c23.25,5.96,42.38,19.42,57.43,40.32,54.21,54.21-8.62,187.04-125.49,187.04-73.4,0-132.16-73.89-132.16-144.73,0-26.4,17.86-74.78,39.4-86.87l-32.41,4.24Z"/>
    <g>
      <path class="cls-1" d="M973.28,725.75c-21.53,12.09-39.4,60.47-39.4,86.87,0,70.84,58.76,144.73,132.16,144.73,116.88,0,179.71-132.82,125.49-187.04"/>
      <path class="cls-1" d="M1001.01,704.15c-8.23,15.67-26.16,25.84-60.14,25.84-20.36,0-32.95-11.17-32.95-25.84,0-104.37,85.67-151.33,132.66-121.32,6.21-43.41,30.15-56.36,89.27-56.36,39.91,0,39.31,49.45,12.56,87.2,12.49-22.8,31.74-27.34,55.43-27.34,16.87,0,30.56,6.38,25.13,41.39s-48.22,102.27-88.85,102.27c-16.84,0-33.04-4.95-38.02-16.57"/>
      <path class="cls-1" d="M1097.19,774.53c-19.63,18.21-28.33,32.8-21.68,51.68,17.97,51.01,84.45,1.47,64.48-39.82"/>
    </g>
  </g>
  <g>
    <path class="cls-3" d="M1196.66,211.22c23.97-120.83,88.64-153.17,162.15-153.17,17.26,0,31.2,14.93,31.2,36.85,0,79.2-35.86,219.89-151.16,219.89,49.48-5.22,77.79,9.11,77.79,39.45,0,70.62-61.54,194.79-119.99,194.79-49.35,0-127.06-40.34-72.63-135.15-26.72,44.13-61.26,94.81-130.36,94.81-27.74,0-41.08-5.4-41.08-30.81,0-209.85,58.54-195.15,144.63-195.15h-49.83c-29.99-15.8-48.19-37.92-48.19-74.27,0-79.42,42.66-143,99.55-143,50.73,0,87.03,33.61,109.82,90.86l-11.9,54.9Z"/>
    <path class="cls-1" d="M1196.66,211.22c23.97-120.83,88.64-153.17,162.15-153.17,17.26,0,31.2,14.93,31.2,36.85,0,79.2-35.86,219.89-151.16,219.89,49.48-5.22,77.79,9.11,77.79,39.45,0,70.62-61.54,194.79-119.99,194.79-49.35,0-127.06-40.34-72.63-135.15-26.72,44.13-61.26,94.81-130.36,94.81-27.74,0-41.08-5.4-41.08-30.81,0-209.85,58.54-195.15,144.63-195.15h-49.83c-29.99-15.8-48.19-37.92-48.19-74.27,0-79.42,42.66-143,99.55-143,50.73,0,87.03,33.61,109.82,90.86l-11.9,54.9Z"/>
  </g>
  <g>
    <path class="cls-3" d="M893.56,307.42c4.77-.54,9.54-.75,14.29-.62,36.36,0,69.4,36.28,69.77,73.22,0,80.2-61.75,115.12-150.41,115.12-53.55,0-88.88-6.02-122.56-21.81-35.47-21.74-41.13-93.76-2.4-240.64-17.98-11.86-20.92-37.43-21.02-50.01-4.29-36.21-2.68-68.71,5.42-97.13,17.6-38,71.23-46.15,107.3-46.15,113.63,0,223.44,10.54,223.44,85.26,0,38.19-38.99,128.23-114.43,128.23l-4.1,2.06c5.26,11.53,3.38,28.87-9.34,51.85l4.03.62"/>
    <g>
      <path class="cls-1" d="M898.14,252.9c7.06,11.43,5.23,28.91-8.61,53.91"/>
      <path class="cls-1" d="M792.08,261.36c14.73-11.8,37.22-18.27,56.57-21.21"/>
      <path class="cls-1" d="M809.2,349.55c33.42-28.88,66.31-43.63,98.64-42.74,36.36,0,69.4,36.28,69.77,73.22,0,80.2-61.75,115.12-150.41,115.12-53.55,0-88.88-6.02-122.56-21.81"/>
      <path class="cls-1" d="M686.65,85.56c17.6-38,71.23-46.15,107.3-46.15,113.63,0,223.44,10.54,223.44,85.26,0,38.19-38.99,128.23-114.43,128.23-26.6,0-60.29-10.73-69.83-25.33"/>
      <path class="cls-1" d="M802.55,153.07c-8.59,32.69-36.42,85.92-77.34,85.92-38.71,0-43.84-39.6-43.97-56.3"/>
    </g>
  </g>
  <g>
    <path class="cls-3" d="M531.25,88.78c19.83-26.62,50.99-39.37,78.15-39.37s44.92,19.74,44.92,40.65c0,70.58-28.19,156.31-64.29,212.82,18.76-16.39,51.7-34.46,77.09-34.46,32.42,0,47.52,35.32,47.52,76,0,74.28-74.46,154.97-148.89,154.97-33.08,0-45.11-24.75-26.09-52.7l-35.64,33.11c-17.91,19.58-70.07,26.19-70.07-57.15,0-92.96,26.54-160.51,63.44-232.6,18.9-32.75,29.79-66.56,33.84-101.28Z"/>
    <g>
      <path class="cls-1" d="M497.4,190.06c-36.9,72.09-63.44,139.64-63.44,232.6,0,83.34,52.16,76.73,70.07,57.15"/>
      <path class="cls-1" d="M531.25,88.78c19.83-26.62,50.99-39.37,78.15-39.37s44.92,19.74,44.92,40.65c0,70.58-28.19,156.31-64.29,212.82,18.76-16.39,51.7-34.46,77.09-34.46,32.42,0,47.52,35.32,47.52,76,0,74.28-74.46,154.97-148.89,154.97-33.08,0-45.11-24.75-26.09-52.7"/>
    </g>
  </g>
  <g>
    <path class="cls-3" d="M226.96,68.72C154.85,144.56,59.59,229.89,59.59,275.47c0,58,56.37,88.78,56.37,88.78-82.66,7.63-91.56,17.17-91.56,33.7,0,36.78,53.41,159.94,104.9,159.94,45.18,0,85.69-45.44,110.82-94.85l1.55,1.45c59.82,77.24,244.46,77.05,244.46-49.5,0-106.03-86.46-230.02-186.48-302.38-11.75-9.08-25.52-18.61-41.4-27.78-10.91-6.29-21.41-11.61-31.28-16.12Z"/>
    <g>
      <path class="cls-1" d="M241.67,464.49c59.82,77.24,244.46,77.05,244.46-49.5,0-106.03-86.46-230.02-186.48-302.38"/>
      <path class="cls-1" d="M219.36,329.7c15.8,31.77,40.6,36.76,75.52,11.68"/>
      <path class="cls-1" d="M217.93,270.22c29.35-20.16,58.69-18.83,88.04,4"/>
      <path class="cls-1" d="M241.67,173.5c7.96,13.58,16.57,43.72,16.57,82.6"/>
      <path class="cls-1" d="M264.95,356.21c13.46,50.91-53.35,201.68-135.65,201.68-51.49,0-104.9-123.16-104.9-159.94,0-16.53,8.9-26.07,91.56-33.7,0,0-56.37-30.78-56.37-88.78,0-45.58,95.26-130.91,167.37-206.75"/>
    </g>
  </g>
  <path class="cls-1" d="M1638.88,113c-58.68,37.02-222.64,112.78-255.89,144.03l-7.6,22.6c21.61,6.88,50.76,30.93,94.12,48.47-17.92,37.73-58.32,81.3-57.92,105.68l70.09,36.67,76.88-100.93c5.58,19.88,56.27,51.32,80.87,62.42,22.34-90.13,24.69-205.89-.56-318.95Z"/>
  <path class="cls-2" d="M158.53,702.29c3.15,3.71,6.21,7.49,9.19,11.34l-2.17-2.81c13.12,17,24.51,35.32,33.97,54.6,2.65,5.4,5.14,10.87,7.48,16.41l-1.4-3.32c6.08,14.41,11.16,29.27,15.01,44.43,1.17,4.61,2.17,9.25,2.82,13.96l-.5-3.69c.74,5.55.96,11.15.25,16.72l.5-3.69c-.49,3.55-1.33,7.05-2.7,10.36l1.4-3.32c-1.16,2.7-2.65,5.22-4.45,7.55l2.17-2.81c-1.74,2.21-3.72,4.2-5.93,5.94l2.81-2.17c-2,1.53-4.14,2.82-6.44,3.82l3.32-1.4c-2.05.86-4.17,1.46-6.37,1.77l3.69-.5c-1.86.23-3.71.23-5.56,0l3.69.5c-1.84-.26-3.61-.75-5.33-1.45l3.32,1.4c-1.71-.73-3.31-1.66-4.79-2.79l2.81,2.17c-1.61-1.26-3.02-2.71-4.27-4.32l2.17,2.81c-1.51-1.99-2.73-4.17-3.72-6.47l1.4,3.32c-1.38-3.29-2.26-6.75-2.74-10.28l.5,3.69c-.52-4.05-.51-8.13,0-12.18l-.5,3.69c.67-4.92,2.18-9.67,4.09-14.24l-1.4,3.32c2.66-6.27,6.18-12.12,10.32-17.53l-2.17,2.81c5.58-7.21,12.18-13.56,19.38-19.14l-2.81,2.17c14.48-11.15,31.17-18.88,47.93-25.95l-3.32,1.4c9.14-3.85,18.33-7.57,27.44-11.49,2.97-1.28,5.57-5.34,6.38-8.3.92-3.33.5-7.75-1.4-10.7s-4.76-5.58-8.3-6.38l-3.69-.5c-2.51,0-4.84.64-7.01,1.9-1.4.6-2.81,1.2-4.22,1.8l3.32-1.4c-15.25,6.43-30.74,12.37-45.52,19.84-13.51,6.82-26.35,15.17-37.37,25.6-5.56,5.27-10.51,11.17-14.91,17.44s-7.74,13.09-10.43,20.24c-2.41,6.41-3.75,13.21-3.97,20.07-.12,3.9.36,7.7.91,11.55.38,2.65.98,5.28,1.86,7.81,1.2,3.43,2.64,6.92,4.6,10s4.13,5.92,6.79,8.24c3.23,2.82,6.37,4.85,10.26,6.49,4.21,1.78,8.51,2.76,13.12,2.83,2.62.04,5.28-.38,7.84-.83,1.43-.25,2.84-.65,4.2-1.15,3.9-1.45,7.59-3.15,10.91-5.68,2.06-1.57,4.12-3.11,5.95-4.95s3.47-4.01,5.08-6.12c2.55-3.35,4.21-7,5.8-10.89,1.82-4.46,2.52-9.14,3.13-13.89.48-3.81.55-7.66.29-11.49-.61-8.85-2.41-17.58-4.71-26.13-3.77-14.04-8.52-27.79-14.16-41.18-6.06-14.38-12.86-28.38-20.82-41.83s-16.91-26.14-26.59-38.36c-2.22-2.81-4.49-5.57-6.81-8.3-2.19-2.58-6.55-4.07-9.82-4.07s-7.48,1.51-9.82,4.07-4.23,6.12-4.07,9.82l.5,3.69c.66,2.35,1.85,4.4,3.57,6.13h0Z"/>
  <path class="cls-2" d="M181.42,686.22c-5.41-9.94-11.78-19.19-18.74-28.1-6.26-8.03-13.33-15.38-21.96-20.9-4.5-2.88-9.64-5.24-14.84-6.51-4.64-1.14-9.7-1.7-14.47-1.14-2.99.35-6,.7-8.89,1.58s-5.46,1.98-8,3.32c-5.16,2.73-9.22,6.79-12.55,11.51-3.84,5.46-5.2,12.21-5.77,18.72-.4,4.57-.16,9.26.25,13.82.56,6.29,1.59,12.19,4.63,17.8,3.54,6.54,10.01,11.22,17.16,13.01,3.42.86,7.01,1.19,10.53,1.43,2.43.17,4.88.22,7.31.16,6-.15,12.03-.94,17.93-2.06,10.89-2.08,21.24-6.06,31.35-10.52,9.27-4.09,18.19-8.93,27-13.93,9.29-5.28,18.48-10.73,27.58-16.34,9.1-5.61,18.1-11.37,26.99-17.29,8.55-5.69,17.2-11.36,25.37-17.59,4.27-3.26,8.56-6.53,11.92-10.76,2.01-2.53,4.03-5.06,5.4-8.01,1.29-2.78,2.58-5.68,3.12-8.72,1.06-6.06,1.07-12.1-.8-18.04-.91-2.9-2.14-5.77-3.61-8.44s-3.36-5.04-5.25-7.39c-3.17-3.95-7.3-7.29-11.56-9.97-2.65-1.67-5.52-2.87-8.42-4.04-2.2-.89-4.48-1.58-6.81-2-3.39-.61-6.99-1.16-10.45-.85-2.29.2-4.65.47-6.9,1.04s-4.23,1.49-6.21,2.39c-2.66,1.21-4.99,3.06-7.21,4.94s-3.92,4.23-5.54,6.52c-1.06,1.49-1.9,3.09-2.62,4.77-1.2,2.79-2.36,5.5-2.97,8.47s-1.03,6.05-1.1,9.1.38,5.97.85,8.9c.91,5.72,3.25,11.24,5.83,16.38,2.17,4.32,4.83,8.38,7.59,12.35,12.6,18.12,25.56,36,38.34,53.99,3.13,4.41,6.27,8.82,9.4,13.23,2.14,3.01,4.63,5.37,8.3,6.38,3.33.92,7.75.5,10.7-1.4s5.58-4.76,6.38-8.3.74-7.69-1.4-10.7c-15.63-21.99-31.36-43.9-46.87-65.97-3.81-5.42-7.48-10.98-10.08-17.09l1.4,3.32c-1.39-3.34-2.44-6.81-2.93-10.39l.5,3.69c-.32-2.59-.31-5.19.03-7.77l-.5,3.69c.34-2.46.97-4.86,1.91-7.17l-1.4,3.32c.82-1.93,1.84-3.75,3.1-5.42l-2.17,2.81c1.07-1.37,2.27-2.59,3.64-3.66l-2.81,2.17c1.23-.92,2.54-1.68,3.95-2.29l-3.32,1.4c1.59-.65,3.23-1.07,4.93-1.31l-3.69.5c2.19-.26,4.35-.21,6.53.08l-3.69-.5c2.83.42,5.59,1.21,8.23,2.32l-3.32-1.4c2.66,1.14,5.15,2.61,7.45,4.36l-2.81-2.17c2.39,1.85,4.54,3.97,6.41,6.36l-2.17-2.81c1.66,2.16,3.05,4.49,4.12,7l-1.4-3.32c.83,2.03,1.42,4.12,1.74,6.29l-.5-3.69c.25,1.93.27,3.86.03,5.79l.5-3.69c-.27,1.92-.79,3.76-1.53,5.56l1.4-3.32c-.87,2-1.99,3.85-3.31,5.59l2.17-2.81c-2.49,3.21-5.52,5.92-8.72,8.41l2.81-2.17c-6.45,4.98-13.3,9.51-20.04,14.07-7.13,4.83-14.33,9.55-21.6,14.18-14.44,9.19-29.11,18.03-44.08,26.34-8.06,4.48-16.27,8.71-24.76,12.29l3.32-1.4c-9.74,4.08-19.86,7.29-30.35,8.71l3.69-.5c-6.7.87-13.53,1.05-20.23.17l3.69.5c-1.83-.26-3.61-.65-5.33-1.32l3.32,1.4c-1.13-.48-2.17-1.06-3.14-1.81l2.81,2.17c-.8-.65-1.5-1.38-2.14-2.19l2.17,2.81c-.75-1.01-1.35-2.09-1.86-3.24l1.4,3.32c-.97-2.31-1.49-4.76-1.82-7.23l.5,3.69c-.72-5.71-1.03-11.78-.32-17.5l-.5,3.69c.31-2.28.85-4.49,1.72-6.62l-1.4,3.32c.68-1.56,1.53-3.01,2.57-4.36l-2.17,2.81c1.06-1.34,2.27-2.53,3.62-3.59l-2.81,2.17c1.63-1.25,3.4-2.26,5.28-3.08l-3.32,1.4c2.35-.99,4.79-1.64,7.31-2.01l-3.69.5c2.77-.37,5.56-.38,8.34-.03l-3.69-.5c2.87.4,5.63,1.22,8.3,2.34l-3.32-1.4c3.56,1.53,6.85,3.55,9.92,5.89l-2.81-2.17c6.19,4.8,11.34,10.74,16.11,16.92l-2.17-2.81c5.97,7.76,11.32,15.97,16,24.57,1.64,3.01,5.04,5.48,8.3,6.38s7.75.5,10.7-1.4,5.58-4.76,6.38-8.3.44-7.32-1.4-10.7h0Z"/>
</svg>